<svg xmlns="http://www.w3.org/2000/svg" width="183" height="203" viewBox="0 0 183 203" fill="none">
<g id="Icon &#226;&#128;&#147; White">
<path id="Subtract" d="M0 30.3867C0.000254996 6.99884 25.3457 -7.59506 45.5732 4.1455L126.077 50.8721V91.3594C122.196 84.0453 113.986 79.1192 103.537 79.1191C82.6392 79.1192 69.3537 95.5392 69.3535 117.034C69.3535 138.679 81.7432 154.949 103.238 154.949C113.24 154.949 122.196 150.023 126.077 142.858V151.513L45.5732 198.24C25.3456 209.981 -1.02233e-06 195.387 0 171.999V153.009H62.1162V133.604H22.4092V110.615H62.1162V91.6582H22.4092V67.9238H62.1162V48.5185H0V30.3867ZM167.561 74.9512C187.707 86.6451 187.707 115.741 167.561 127.435L148.767 138.343V64.042L167.561 74.9512ZM109.807 98.2256C121.151 98.2257 126.972 106.735 126.973 117.034C126.973 127.483 121.151 135.992 109.807 135.992C99.2084 135.992 92.6396 127.931 92.6396 117.034C92.6399 106.138 99.2085 98.2257 109.807 98.2256Z" fill="#00141B"/>
</g>
</svg>
