<?xml version="1.0" encoding="UTF-8"?>
<svg id="Fiamma_15_BN-2" data-name="Fiamma 15% BN" xmlns="http://www.w3.org/2000/svg" viewBox="0 0 2140 615">
  <g>
    <g>
      <path d="M272.96,384.97c-4.31,0-7.97,2.81-9.23,6.71-.31.94-.47,1.95-.47,3.01v147.9c5.66,3.47,11.5,6.85,17.48,10.13l1.94.95v-158.98c0-5.36-4.37-9.72-9.72-9.72Z"/>
      <path d="M313.05,385.71c-5.36,0-9.72,4.36-9.72,9.72v158.16l1.7-.87c6.07-3.33,11.99-6.75,17.73-10.28v-147.02c0-5.36-4.37-9.72-9.71-9.72Z"/>
      <path d="M478.39,181.95c-5.78-1.94-11.52-3.96-17.27-5.99-23.26-8.2-46.28-17.06-69.25-26.03-14.94-5.84-29.81-11.83-44.7-17.8-3.01-1.67-5.96-3.3-8.84-4.81-1.77-22.18-11.78-44.09-48.29-61.61l-19.49-9.48v12.46c.62,30.09-10.33,39.9-30.38,55.35l-.1.1c-4.03,3.11-8.2,6-12.53,8.66-3.97,2.49-8.07,4.79-12.3,6.85-4.63,2.3-9.35,4.6-14.21,6.92-1.87.91-3.8,1.81-5.7,2.72-.53.21-1.07.43-1.6.64-22.98,8.98-46,17.85-69.26,26.06-5.69,2.01-11.39,4.02-17.11,5.95l-15.12,5.09.42,15.94c3.08,117.95,34.03,221.61,114.07,296.63l11.13,9.95c.63.54,1.28,1.07,1.92,1.61v-111.24c0-5.33-3.72-9.66-8.49-10.79-1.69-.42-3.51-.42-5.33.07l-.13.05v-3.69c0-4.44,3.04-8.29,7.36-9.33l.07-.02h.03c2.13-.54,4.28-1.02,6.49-1.5,22.08-4.78,46.93-7.46,73.24-7.46s51.16,2.68,73.24,7.46c2.19.47,4.36.96,6.49,1.5h.02l.08.02c4.32,1.04,7.36,4.89,7.36,9.33v3.69l-.16-.05c-6.97-1.85-13.79,3.5-13.79,10.73v111.03c.55-.47,1.12-.93,1.67-1.4l11.13-9.95c80.04-75.01,110.98-178.66,114.07-296.6l.42-15.97-15.15-5.08Z"/>
      <path d="M347.71,396.72c-4.96,0-9.04,4.05-9.04,9.04v126.07l7.94-5.45c3.47-2.53,6.85-5.1,10.17-7.71v-112.91c0-4.99-4.08-9.04-9.07-9.04Z"/>
      <path d="M238.3,396.72c-4.73,0-8.62,3.64-9.02,8.24-.03.26-.05.52-.05.8v113.1c3.24,2.55,6.55,5.06,9.93,7.52l8.18,5.62v-126.24c0-4.96-4.08-9.04-9.04-9.04Z"/>
    </g>
    <path id="Colonna" d="M380.03,389.19l.16.05v-3.69c0-4.44-3.04-8.29-7.36-9.33l-.08-.02h-.02c-2.13-.54-4.29-1.02-6.49-1.5-22.08-4.78-46.97-7.46-73.24-7.46s-51.16,2.68-73.24,7.46c-2.21.47-4.36.96-6.49,1.5h-.03l-.07.02c-4.32,1.04-7.36,4.89-7.36,9.33v3.69l.13-.05c1.82-.49,3.64-.49,5.33-.07,4.76,1.14,8.49,5.46,8.49,10.79v111.24c3.09,2.61,6.24,5.18,9.46,7.71v-113.1c0-.28.01-.54.05-.8.41-4.6,4.29-8.24,9.02-8.24s9.04,4.08,9.04,9.04v126.24l10.54,7.24c1.77,1.13,3.56,2.25,5.37,3.36v-147.9c0-1.06.16-2.06.47-3.01,1.27-3.9,4.93-6.71,9.23-6.71,5.35,0,9.72,4.36,9.72,9.72v158.98l10.49,5.1,10.15-5.18v-158.16c0-5.36,4.36-9.72,9.72-9.72s9.71,4.36,9.71,9.72v147.02c1.72-1.06,3.44-2.13,5.13-3.21l10.79-7.41v-126.07c0-4.99,4.08-9.04,9.04-9.04s9.07,4.05,9.07,9.04v112.91c3.22-2.53,6.37-5.11,9.46-7.72v-111.03c0-7.23,6.81-12.58,13.79-10.73Z" fill="#fff"/>
    <path id="Capitello" d="M406.89,346.59c-4.41-1.83-9.07-3.54-13.92-5.16v-4.62c0-2.6-1.58-4.93-3.98-5.93-6.87-2.85-14.42-5.4-22.5-7.61-21.35-5.8-46.53-9.15-73.48-9.15s-52.15,3.34-73.48,9.15c-8.09,2.2-15.63,4.76-22.5,7.61-2.4,1-3.98,3.32-3.98,5.93v.09c29.66-7.05,74.37-6.87,74.37-6.87-33.87,2.75-80.25,13.52-81.51,13.91-2.32.86-4.58,1.74-6.78,2.65-2.85,1.18-4.73,3.94-4.73,7.03v12.4s0,12.14,24.17,12.14c-1.52-1.18-2.31-2.37-2.31-3.6,0-2.55,3.44-4.99,9.56-7.12,3.71-1.31,8.41-2.52,13.95-3.57,17.74-3.5,43.96-5.7,73.24-5.7s55.5,2.21,73.24,5.7c5.54,1.05,10.25,2.26,13.95,3.57,6.12,2.13,9.57,4.57,9.57,7.12,0,1.23-.79,2.42-2.31,3.6,24.17,0,24.17-12.14,24.17-12.14v-12.4c0-3.09-1.87-5.85-4.73-7.03Z" fill="#fff"/>
    <path id="Fiamma" d="M353.66,285.95c-2.9,3.62-9.19,9.46-12.92,12.74,7.56-18.25,6.69-54.41-15.11-70.83-7.61,87.01-73.57-1.61-38.11-53.71-53.22,28.85-51.7,92.74-36.23,124.54-5.84-2.12-12.24-8.13-16.7-13.03-16.83-18.79-28.29-43.62-27.6-65.49,0-91.91,79.58-75.62,78.03-140.21,70.9,33.98,13.84,92.98,39.5,110.57,9.22,6.32,27.52,1.14,25.17-17.18-1.83-14.28-4.58-17.74-4.58-17.98,1.92,2.32,69.44,66.86,8.55,130.57Z" fill="#fff"/>
  </g>
  <g>
    <g id="UniversiData">
      <path d="M1903.64,397.09c-7.19,0-13.17-1.36-17.96-4.07-4.79-2.71-8.3-6.31-10.54-10.78-2.24-4.63-3.36-9.66-3.36-15.09,0-6.87,1.52-12.45,4.55-16.77,3.19-4.31,7.27-7.82,12.22-10.54,4.95-2.71,10.14-4.95,15.57-6.71,5.59-1.76,10.85-3.43,15.81-5.03,5.11-1.76,9.19-3.75,12.22-5.99,3.2-2.4,4.79-5.43,4.79-9.1v-18.68c0-4.15-.72-7.82-2.16-11.02-1.27-3.35-3.35-5.91-6.22-7.66-2.71-1.76-6.31-2.63-10.78-2.63-3.2,0-6.39.48-9.58,1.44-3.19.8-5.84,2.24-7.9,4.31,4.46,1.6,7.9,4.07,10.3,7.43,2.55,3.19,3.83,6.87,3.83,11.02,0,5.43-1.92,9.74-5.75,12.93-3.67,3.19-8.06,4.79-13.17,4.79-5.75,0-10.14-1.76-13.17-5.27-2.88-3.67-4.31-8.06-4.31-13.17,0-4.63,1.11-8.46,3.35-11.5,2.4-3.03,5.67-5.91,9.82-8.62,4.47-2.55,9.82-4.55,16.04-5.99,6.39-1.44,13.26-2.16,20.61-2.16s13.97.8,19.87,2.4c5.92,1.44,10.87,4.15,14.85,8.14,3.68,3.67,6.07,8.22,7.19,13.65,1.12,5.27,1.68,11.98,1.68,20.12v65.15c0,3.99.4,6.79,1.19,8.38.81,1.44,2.16,2.16,4.08,2.16,1.43,0,2.79-.4,4.07-1.2,1.44-.8,2.96-1.76,4.55-2.87l2.4,4.07c-3.35,2.87-7.27,5.11-11.73,6.71-4.31,1.44-9.19,2.16-14.61,2.16-5.92,0-10.62-.8-14.14-2.39-3.51-1.76-6.06-4.07-7.66-6.95-1.43-2.87-2.16-6.23-2.16-10.06-3.83,6.07-8.46,10.86-13.89,14.37-5.43,3.35-12.06,5.03-19.88,5.03ZM1920.65,381.76c3.19,0,6.06-.72,8.62-2.16,2.71-1.6,5.27-4.15,7.66-7.66v-49.1c-1.43,2.4-3.43,4.55-5.98,6.47-2.55,1.92-5.27,3.91-8.14,5.99-2.88,1.92-5.68,4.07-8.39,6.47-2.55,2.39-4.63,5.35-6.22,8.86-1.6,3.51-2.4,7.74-2.4,12.69,0,6.23,1.35,10.86,4.06,13.89,2.73,3.03,6.31,4.55,10.79,4.55Z"/>
      <path d="M1835,229.99v39.28h28.26v4.79h-28.26v122.4h-34.5v-122.4h-20.12v-4.79h20.12v-31.62c6.71,0,12.85-.56,18.44-1.68,5.76-1.28,11.1-3.27,16.06-5.99Z"/>
      <path d="M1695.47,397.09c-7.19,0-13.18-1.36-17.97-4.07-4.79-2.71-8.3-6.31-10.54-10.78-2.24-4.63-3.35-9.66-3.35-15.09,0-6.87,1.52-12.45,4.55-16.77,3.19-4.31,7.27-7.82,12.22-10.54,4.95-2.71,10.14-4.95,15.57-6.71,5.59-1.76,10.86-3.43,15.81-5.03,5.11-1.76,9.19-3.75,12.22-5.99,3.19-2.4,4.79-5.43,4.79-9.1v-18.68c0-4.15-.73-7.82-2.16-11.02-1.28-3.35-3.35-5.91-6.23-7.66-2.71-1.76-6.3-2.63-10.78-2.63-3.19,0-6.38.48-9.58,1.44-3.19.8-5.82,2.24-7.9,4.31,4.47,1.6,7.9,4.07,10.3,7.43,2.55,3.19,3.84,6.87,3.84,11.02,0,5.43-1.92,9.74-5.75,12.93-3.68,3.19-8.07,4.79-13.18,4.79-5.75,0-10.14-1.76-13.17-5.27-2.87-3.67-4.31-8.06-4.31-13.17,0-4.63,1.12-8.46,3.35-11.5,2.39-3.03,5.67-5.91,9.82-8.62,4.47-2.55,9.82-4.55,16.05-5.99,6.39-1.44,13.25-2.16,20.6-2.16s13.98.8,19.88,2.4c5.9,1.44,10.86,4.15,14.85,8.14,3.67,3.67,6.06,8.22,7.19,13.65,1.11,5.27,1.67,11.98,1.67,20.12v65.15c0,3.99.4,6.79,1.2,8.38.79,1.44,2.16,2.16,4.06,2.16,1.44,0,2.8-.4,4.08-1.2,1.44-.8,2.95-1.76,4.55-2.87l2.4,4.07c-3.36,2.87-7.27,5.11-11.74,6.71-4.31,1.44-9.17,2.16-14.61,2.16-5.9,0-10.62-.8-14.13-2.39-3.52-1.76-6.07-4.07-7.66-6.95-1.44-2.87-2.16-6.23-2.16-10.06-3.84,6.07-8.46,10.86-13.9,14.37-5.43,3.35-12.05,5.03-19.87,5.03ZM1712.47,381.76c3.2,0,6.07-.72,8.63-2.16,2.71-1.6,5.27-4.15,7.66-7.66v-49.1c-1.44,2.4-3.44,4.55-6,6.47-2.55,1.92-5.27,3.91-8.14,5.99-2.87,1.92-5.67,4.07-8.38,6.47-2.55,2.39-4.63,5.35-6.23,8.86-1.59,3.51-2.4,7.74-2.4,12.69,0,6.23,1.36,10.86,4.08,13.89,2.71,3.03,6.31,4.55,10.78,4.55Z"/>
      <path d="M1554.5,226.93c31.46,0,54.85,7.19,70.18,21.56,15.33,14.21,22.99,34.65,22.99,61.32,0,17.41-3.75,32.65-11.26,45.75-7.51,12.93-18.44,22.99-32.82,30.18-14.21,7.19-31.3,10.78-51.26,10.78h-71.86v-4.79c5.11-.32,8.94-.96,11.5-1.92,2.56-.96,4.23-2.87,5.03-5.75.96-2.88,1.44-7.19,1.44-12.94v-118.8c0-5.91-.48-10.22-1.44-12.93-.8-2.87-2.55-4.79-5.27-5.75-2.56-1.12-6.31-1.76-11.26-1.92v-4.79c3.99.16,9.34.4,16.05.72,6.87.16,13.65.16,20.36,0,5.75-.16,12.22-.32,19.4-.48,7.35-.16,13.41-.24,18.2-.24ZM1554.26,231.25c-7.35,0-12.14,1.36-14.37,4.07-2.24,2.71-3.35,8.22-3.35,16.53v119.76c0,8.3,1.12,13.81,3.35,16.53,2.39,2.71,7.26,4.07,14.61,4.07,13.41,0,23.95-3.11,31.62-9.34,7.82-6.39,13.41-15.65,16.77-27.78,3.35-12.14,5.03-26.91,5.03-44.31s-1.84-32.65-5.51-44.31c-3.51-11.82-9.18-20.6-17.01-26.35-7.82-5.91-18.2-8.86-31.14-8.86Z"/>
      <path d="M1452.36,270.05v126.47h1.92-36.41v-97.73c0-7.19.19-13.98-2.04-17.34l-8.7-3.74v-5.03c5.11.48,10.06.72,14.85.72,6.71,0,8.35-.24,14.09-.72,5.91-.64,11.34-1.52,16.29-2.63Z"/>
      <path d="M1447.25,222.79c-3.83-3.35-9.1-5.03-15.81-5.03s-12.06,1.68-16.05,5.03c-3.83,3.19-5.75,7.66-5.75,13.41s1.92,10.3,5.75,13.65c3.99,3.19,9.34,4.79,16.05,4.79s11.98-1.6,15.81-4.79c3.99-3.35,5.99-7.9,5.99-13.65s-2-10.22-5.99-13.41Z"/>
      <path d="M872.49,270.05v126.47h-1.92,36.41v-97.73c0-7.19-.2-13.98,2.04-17.34l8.7-3.74v-5.03c-5.11.48-10.06.72-14.85.72-6.71,0-8.35-.24-14.09-.72-5.91-.64-11.34-1.52-16.29-2.63Z"/>
      <path d="M877.6,222.79c3.83-3.35,9.1-5.03,15.81-5.03s12.06,1.68,16.05,5.03c3.83,3.19,5.75,7.66,5.75,13.41s-1.92,10.3-5.75,13.65c-3.99,3.19-9.34,4.79-16.05,4.79s-11.98-1.6-15.81-4.79c-3.99-3.35-5.99-7.9-5.99-13.65s2-10.22,5.99-13.41Z"/>
      <path d="M1339.33,266.7c6.71,0,12.54.88,17.49,2.63,5.11,1.6,8.78,3.19,11.02,4.79,5.43,3.67,8.78,1.28,10.06-7.19h5.03c-.32,4.47-.56,9.98-.72,16.53-.16,6.39-.24,14.93-.24,25.63h-5.03c-.8-5.91-2.32-11.74-4.55-17.49-2.24-5.75-5.51-10.46-9.82-14.13-4.15-3.67-9.58-5.51-16.29-5.51-4.63,0-8.54,1.36-11.74,4.07-3.19,2.55-4.79,6.31-4.79,11.26s1.44,9.02,4.31,12.69c2.88,3.51,6.55,6.95,11.02,10.3,4.63,3.19,9.42,6.63,14.37,10.3,5.27,3.99,10.06,7.98,14.37,11.98,4.31,3.83,7.74,8.06,10.3,12.69,2.55,4.63,3.83,10.14,3.83,16.53,0,7.19-2.08,13.49-6.23,18.92-4.15,5.27-9.66,9.34-16.53,12.22-6.71,2.87-14.21,4.31-22.52,4.31-4.79,0-12.93-1.44-12.93-1.44l-9.58-3.59-5.99-2.64-5.03-2.39-4.31,1.68s-2,3.83-2.63,6.71h-5.03c.32-5.11.56-11.34.72-18.68.16-7.35.24-17.09.24-29.22h5.03c.96,8.62,2.71,16.29,5.27,22.99,2.55,6.55,5.99,11.74,10.3,15.57,4.47,3.67,10.06,5.51,16.77,5.51,2.71,0,5.35-.56,7.9-1.68,2.55-1.12,4.63-2.95,6.23-5.51,1.76-2.55,2.63-5.83,2.63-9.82,0-7.03-2.32-12.85-6.95-17.49-4.47-4.63-10.22-9.66-17.25-15.09-5.11-4.15-9.98-8.22-14.61-12.22-4.47-4.15-8.14-8.62-11.02-13.41-2.87-4.95-4.31-10.54-4.31-16.77,0-7.19,1.92-13.25,5.75-18.2,3.83-4.95,8.86-8.62,15.09-11.02,6.39-2.55,13.17-3.83,20.36-3.83Z"/>
      <path d="M1262.49,269.76c5.11,0,9.26,1.12,12.45,3.35,3.19,2.08,5.51,4.79,6.95,8.14,1.6,3.35,2.39,6.87,2.39,10.54,0,5.91-1.76,10.78-5.27,14.61-3.35,3.67-7.82,5.51-13.41,5.51s-9.98-1.36-13.17-4.07c-3.03-2.87-4.55-6.63-4.55-11.26s.96-8.14,2.87-11.02c2.08-3.03,4.63-5.59,7.66-7.66-2.24-.64-4.47-.56-6.71.24-3.03.48-5.91,1.76-8.62,3.83-2.71,1.92-5.03,4.39-6.95,7.43-1.92,2.87-3.43,6.07-4.55,9.58-1.12,3.35-1.68,6.63-1.68,9.82v88.14h-34.49v-97.73c0-7.19-1.12-12.46-3.35-15.81-2.08-3.51-6.07-5.27-11.98-5.27v-5.03c5.11.48,10.06.72,14.85.72,6.71,0,12.93-.24,18.68-.72,5.91-.64,11.34-1.52,16.29-2.63v22.28c1.92-4.31,4.47-8.22,7.66-11.74,3.19-3.51,6.87-6.23,11.02-8.14,4.15-2.08,8.78-3.11,13.89-3.11Z"/>
      <path d="M1122.59,266.7c14.05,0,25.07,4.15,33.05,12.46,7.98,8.3,11.98,21.88,11.98,40.72h-78.8l-.48-4.55h49.1c.16-7.82-.32-15.01-1.44-21.56-1.12-6.71-2.87-12.06-5.27-16.05-2.4-3.99-5.59-5.99-9.58-5.99-5.59,0-10.38,3.51-14.37,10.54-3.83,7.03-6.15,18.68-6.95,34.97l.72,1.44c-.16,1.92-.32,3.91-.48,5.99v6.47c0,11.02,1.52,19.96,4.55,26.83,3.19,6.87,7.19,11.9,11.98,15.09,4.79,3.03,9.66,4.55,14.61,4.55,3.35,0,6.79-.48,10.3-1.44,3.67-1.12,7.35-3.03,11.02-5.75,3.67-2.87,7.11-6.87,10.3-11.98l4.31,1.44c-1.92,6.07-4.95,11.98-9.1,17.72-4.15,5.75-9.42,10.46-15.81,14.13-6.39,3.67-14.05,5.51-22.99,5.51-10.86,0-20.44-2.32-28.74-6.95-8.3-4.63-14.85-11.66-19.64-21.08-4.63-9.42-6.95-21.4-6.95-35.93s2.48-27.23,7.42-37.13c5.11-9.9,12.06-17.25,20.84-22.04,8.94-4.95,19.08-7.43,30.42-7.43Z"/>
      <path d="M1058.36,272.82v4.79c-3.03.8-5.91,2.71-8.62,5.75-2.71,2.87-5.35,7.82-7.9,14.85l-34.97,98.92h-15.57l-42.63-105.87c-2.55-6.23-5.11-9.98-7.66-11.26-2.4-1.44-4.47-2.16-6.23-2.16v-5.03c5.11.32,10.38.64,15.81.96,5.59.16,11.66.24,18.2.24,4.95,0,10.14-.08,15.57-.24,5.59-.32,10.78-.64,15.57-.96v5.03c-3.35,0-6.39.16-9.1.48-2.55.32-4.31,1.36-5.27,3.11-.96,1.76-.8,4.87.48,9.34l28.02,74.25-2.39,3.35,18.92-52.46c3.03-8.62,4.31-15.65,3.83-21.08-.48-5.59-2.24-9.74-5.27-12.46-3.03-2.87-7.11-4.47-12.22-4.79v-4.79c2.39.16,4.95.32,7.66.48,2.87,0,5.59.08,8.14.24h7.19c3.19,0,6.55-.08,10.06-.24,3.51-.16,6.31-.32,8.38-.48Z"/>
      <path d="M810.03,269.76c6.71,0,12.14.88,16.29,2.63,4.31,1.6,7.67,3.83,10.06,6.71,2.55,3.03,4.39,6.95,5.51,11.74,1.28,4.79,1.92,11.26,1.92,19.4v86.71h-34.49v-96.77c0-3.99-.4-7.43-1.2-10.3-.8-3.03-2.23-5.35-4.31-6.95-2.08-1.76-5.19-2.63-9.34-2.63s-8.3,1.2-11.98,3.59c-3.51,2.4-6.39,5.75-8.62,10.06-2.08,4.15-3.11,8.86-3.11,14.13v88.86h-34.49v-97.73c0-7.19-1.12-12.46-3.35-15.81-2.08-3.51-6.07-5.27-11.98-5.27v-5.03c5.11.48,10.06.72,14.85.72,6.71,0,12.93-.24,18.68-.72,5.91-.64,11.34-1.52,16.29-2.63v21.56c3.99-8.14,9.42-13.89,16.29-17.25,6.87-3.35,14.53-5.03,22.99-5.03Z"/>
      <path d="M714.74,223.88v4.79c-5.11.64-9.02,2-11.74,4.07-2.55,1.92-4.23,5.03-5.03,9.34-.8,4.31-1.2,10.38-1.2,18.2v63.47c0,10.38-.72,19.88-2.16,28.5-1.44,8.62-3.99,16.05-7.66,22.28-4.15,6.87-10.22,12.29-18.2,16.29-7.98,3.99-18.12,5.99-30.42,5.99-7.35,0-14.85-.88-22.52-2.64-7.66-1.6-14.53-4.71-20.6-9.34-5.11-4.31-9.02-9.18-11.74-14.61-2.71-5.43-4.55-11.82-5.51-19.16-.96-7.51-1.44-16.37-1.44-26.59v-75.21c0-5.91-.48-10.22-1.44-12.93-.8-2.87-2.48-4.79-5.03-5.75-2.55-1.12-6.39-1.76-11.5-1.92v-4.79c3.99.16,9.34.32,16.05.48,6.87.16,13.97.24,21.32.24s14.37-.08,21.08-.24c6.87-.16,12.53-.32,17.01-.48v4.79c-5.43.16-9.58.8-12.46,1.92-2.71.96-4.55,2.87-5.51,5.75-.96,2.71-1.44,7.03-1.44,12.93v90.3c0,7.98.48,15.09,1.44,21.32,1.12,6.07,2.87,11.18,5.27,15.33,2.55,3.99,5.99,7.03,10.3,9.1,4.31,2.08,9.66,3.11,16.05,3.11,11.18,0,19.88-2.64,26.11-7.91,6.39-5.27,10.86-12.53,13.41-21.8,2.71-9.42,4.07-20.2,4.07-32.34v-63.23c0-8.78-.56-15.49-1.68-20.12-1.12-4.79-3.35-8.22-6.71-10.3-3.19-2.08-8.14-3.43-14.85-4.07v-4.79c3.03.16,7.03.32,11.98.48,4.95.16,9.58.24,13.89.24,3.83,0,7.58-.08,11.26-.24,3.83-.16,7.03-.32,9.58-.48Z"/>
    </g>
    <path d="M2047.76,374.96c0,12.48-9.8,22.28-22.54,22.28s-22.68-9.8-22.68-22.28,10.06-22.01,22.68-22.01,22.54,9.8,22.54,22.01ZM2008.18,374.96c0,9.8,7.25,17.58,17.18,17.58s16.77-7.78,16.77-17.45-7.11-17.71-16.91-17.71-17.04,7.92-17.04,17.58ZM2021.73,386.5h-5.1v-22.01c2.01-.4,4.83-.67,8.45-.67,4.16,0,6.04.67,7.65,1.61,1.21.94,2.15,2.68,2.15,4.83,0,2.42-1.88,4.29-4.56,5.1v.27c2.15.81,3.36,2.42,4.03,5.37.67,3.36,1.07,4.7,1.61,5.5h-5.5c-.67-.81-1.07-2.82-1.74-5.37-.4-2.42-1.74-3.49-4.56-3.49h-2.42v8.86ZM2021.87,374.03h2.42c2.82,0,5.1-.94,5.1-3.22,0-2.01-1.48-3.35-4.7-3.35-1.34,0-2.28.13-2.82.27v6.31Z"/>
  </g>
</svg>