<svg xmlns="http://www.w3.org/2000/svg" width="401" height="114" viewBox="0 0 401 114" fill="none">
<g id="empowerEd &#226;&#128;&#147; White">
<g id="Group 18521">
<path id="Subtract" d="M298.338 17.0753C298.338 3.93319 312.581 -4.26777 323.947 2.32926L369.185 28.5871V51.338C367.005 47.228 362.391 44.4603 356.519 44.4601C344.776 44.4601 337.311 53.6869 337.31 65.7658C337.31 77.9287 344.272 87.0724 356.351 87.0724C361.971 87.0723 367.005 84.3037 369.185 80.2775V85.1408L323.947 111.4C312.581 117.997 298.338 109.796 298.338 96.6535V85.9816H333.243V75.0773H310.931V62.1593H333.243V51.506H310.931V38.1691H333.243V27.2638H298.338V17.0753ZM392.497 42.1183C403.818 48.6896 403.818 65.0391 392.497 71.6105L381.935 77.7404V35.9875L392.497 42.1183ZM360.042 55.1964C366.417 55.1966 369.688 59.9782 369.688 65.7658C369.688 71.6374 366.417 76.4189 360.042 76.4191C354.086 76.419 350.395 71.8891 350.395 65.7658C350.396 59.6427 354.086 55.1965 360.042 55.1964Z" fill="#FFFFFF"/>
<g id="Empower">
<path d="M47.12 75.8288H38.5361V39.1309H47.12V44.2497C48.695 40.8634 52.5538 38.1859 57.3576 38.1859C64.0514 38.1859 67.3589 41.0996 68.934 44.7222C70.6665 41.0209 74.9978 38.1859 80.1953 38.1859C91.2205 38.1859 93.4255 45.7459 93.4255 52.5973V75.8288H84.8417V54.251C84.8417 48.1872 82.4791 45.5097 77.9903 45.5097C73.659 45.5097 70.2727 47.636 70.2727 56.3773V75.8288H61.6889V54.1723C61.6889 48.1085 59.4839 45.5097 54.995 45.5097C50.6637 45.5097 47.12 47.636 47.12 56.3773V75.8288Z" fill="#FFFFFF"/>
<path d="M118.066 38.1859C128.54 38.1859 135.549 45.9034 135.549 57.4798C135.549 68.82 128.146 76.7738 117.515 76.7738C112.632 76.7738 107.986 74.4113 105.702 70.8675V92.3665H97.1968V39.1309H105.702V44.0922C107.986 40.5484 112.868 38.1859 118.066 38.1859ZM116.255 69.135C122.555 69.135 126.965 64.3312 126.965 57.4798C126.965 50.6285 122.555 45.8247 116.255 45.8247C109.797 45.8247 105.387 50.5497 105.387 57.4798C105.387 64.4099 109.797 69.135 116.255 69.135Z" fill="#FFFFFF"/>
<path d="M158.531 76.7738C146.403 76.7738 139.158 68.2687 139.158 57.4798C139.158 46.691 146.403 38.1859 158.531 38.1859C170.659 38.1859 177.904 46.691 177.904 57.4798C177.904 68.2687 170.659 76.7738 158.531 76.7738ZM158.531 69.135C165.461 69.135 169.32 64.1737 169.32 57.4798C169.32 50.786 165.461 45.8247 158.531 45.8247C151.601 45.8247 147.742 50.786 147.742 57.4798C147.742 64.1737 151.601 69.135 158.531 69.135Z" fill="#FFFFFF"/>
<path d="M197.628 75.8288H190.383L176.838 39.1309H186.288L193.927 63.3861L201.881 39.1309H211.174L219.127 63.3861L226.766 39.1309H236.216L222.671 75.8288H215.426L206.527 49.6835L197.628 75.8288Z" fill="#FFFFFF"/>
<path d="M271.662 55.5898C271.662 57.0861 271.583 58.2673 271.425 60.3149H244.178C244.414 66.1424 248.194 69.2925 254.415 69.2925C258.668 69.2925 261.188 67.9537 262.605 65.1187H271.268C270.165 71.97 263.235 76.7738 254.415 76.7738C242.839 76.7738 235.673 69.3712 235.673 57.4798C235.673 45.7459 242.918 38.1859 254.1 38.1859C264.574 38.1859 271.662 45.2734 271.662 55.5898ZM244.178 53.7785H263.235C263.157 48.1085 259.849 44.9584 253.943 44.9584C247.879 44.9584 244.256 48.581 244.178 53.7785Z" fill="#FFFFFF"/>
<path d="M285.116 75.8288H276.532V39.1309H285.116V46.2184C286.455 41.0209 290.865 38.6584 294.881 38.6584C296.22 38.6584 297.322 38.7371 298.267 38.9734V46.8485C296.929 46.691 296.22 46.691 294.881 46.691C288.817 46.691 285.116 51.2585 285.116 59.6061V75.8288Z" fill="#FFFFFF"/>
</g>
<path id="Empower_2" d="M35.9892 54.7318C35.9892 56.228 35.9104 57.4093 35.7529 59.4568H8.5051C8.74135 65.2844 12.5214 68.4344 18.7427 68.4344C22.9953 68.4344 25.5153 67.0957 26.9328 64.2606H35.5954C34.4929 71.112 27.5628 75.9158 18.7427 75.9158C7.16634 75.9158 0 68.5132 0 56.6218C0 44.8879 7.24508 37.3278 18.4277 37.3278C28.9016 37.3278 35.9892 44.4154 35.9892 54.7318ZM8.5051 52.9205H27.5628C27.4841 47.2504 24.1765 44.1004 18.2702 44.1004C12.2064 44.1004 8.58385 47.7229 8.5051 52.9205Z" fill="#FFFFFF"/>
</g>
</g>
</svg>
