<?xml version="1.0" encoding="UTF-8"?>
<svg id="Fiamma_15_BN-2" data-name="Fiamma 15% BN" xmlns="http://www.w3.org/2000/svg" viewBox="0 0 654.46 614.63">
  <defs>
    <style>
      .cls-1 {
        fill: #fff;
      }
    </style>
  </defs>
  <g>
    <path d="M307.31,384.79c-4.31,0-7.97,2.81-9.23,6.71-.31.94-.47,1.95-.47,3.01v147.9c5.66,3.47,11.5,6.85,17.48,10.13l1.94.95v-158.98c0-5.36-4.37-9.72-9.72-9.72Z"/>
    <path d="M347.4,385.52c-5.36,0-9.72,4.36-9.72,9.72v158.16l1.7-.87c6.07-3.33,11.99-6.75,17.73-10.28v-147.02c0-5.36-4.37-9.72-9.71-9.72Z"/>
    <path d="M512.73,181.76c-5.78-1.94-11.52-3.96-17.27-5.99-23.26-8.2-46.28-17.06-69.25-26.03-14.94-5.84-29.81-11.83-44.7-17.8-3.01-1.67-5.96-3.3-8.84-4.81-1.77-22.18-11.78-44.09-48.29-61.61l-19.49-9.48v12.46c.62,30.09-10.33,39.9-30.38,55.35l-.1.1c-4.03,3.11-8.2,6-12.53,8.66-3.97,2.49-8.07,4.79-12.3,6.85-4.63,2.3-9.35,4.6-14.21,6.92-1.87.91-3.8,1.81-5.7,2.72-.53.21-1.07.43-1.6.64-22.98,8.98-46,17.85-69.26,26.06-5.69,2.01-11.39,4.02-17.11,5.95l-15.12,5.09.42,15.94c3.08,117.95,34.03,221.61,114.07,296.63l11.13,9.95c.63.54,1.28,1.07,1.92,1.61v-111.24c0-5.33-3.72-9.66-8.49-10.79-1.69-.42-3.51-.42-5.33.07l-.13.05v-3.69c0-4.44,3.04-8.29,7.36-9.33l.07-.02h.03c2.13-.54,4.28-1.02,6.49-1.5,22.08-4.78,46.93-7.46,73.24-7.46s51.16,2.68,73.24,7.46c2.19.47,4.36.96,6.49,1.5h.02l.08.02c4.32,1.04,7.36,4.89,7.36,9.33v3.69l-.16-.05c-6.97-1.85-13.79,3.5-13.79,10.73v111.03c.55-.47,1.12-.93,1.67-1.4l11.13-9.95c80.04-75.01,110.98-178.66,114.07-296.6l.42-15.97-15.15-5.08Z"/>
    <path d="M382.06,396.54c-4.96,0-9.04,4.05-9.04,9.04v126.07l7.94-5.45c3.47-2.53,6.85-5.1,10.17-7.71v-112.91c0-4.99-4.08-9.04-9.07-9.04Z"/>
    <path d="M272.65,396.54c-4.73,0-8.62,3.64-9.02,8.24-.03.26-.05.52-.05.8v113.1c3.24,2.55,6.55,5.06,9.93,7.52l8.18,5.62v-126.24c0-4.96-4.08-9.04-9.04-9.04Z"/>
  </g>
  <path id="Colonna" class="cls-1" d="M414.38,389l.16.05v-3.69c0-4.44-3.04-8.29-7.36-9.33l-.08-.02h-.02c-2.13-.54-4.29-1.02-6.49-1.5-22.08-4.78-46.97-7.46-73.24-7.46s-51.16,2.68-73.24,7.46c-2.21.47-4.36.96-6.49,1.5h-.03l-.07.02c-4.32,1.04-7.36,4.89-7.36,9.33v3.69l.13-.05c1.82-.49,3.64-.49,5.33-.07,4.76,1.14,8.49,5.46,8.49,10.79v111.24c3.09,2.61,6.24,5.18,9.46,7.71v-113.1c0-.28.01-.54.05-.8.41-4.6,4.29-8.24,9.02-8.24s9.04,4.08,9.04,9.04v126.24l10.54,7.24c1.77,1.13,3.56,2.25,5.37,3.36v-147.9c0-1.06.16-2.06.47-3.01,1.27-3.9,4.93-6.71,9.23-6.71,5.35,0,9.72,4.36,9.72,9.72v158.98l10.49,5.1,10.15-5.18v-158.16c0-5.36,4.36-9.72,9.72-9.72s9.71,4.36,9.71,9.72v147.02c1.72-1.06,3.44-2.13,5.13-3.21l10.79-7.41v-126.07c0-4.99,4.08-9.04,9.04-9.04s9.07,4.05,9.07,9.04v112.91c3.22-2.53,6.37-5.11,9.46-7.72v-111.03c0-7.23,6.81-12.58,13.79-10.73Z"/>
  <path id="Capitello" class="cls-1" d="M441.23,346.41c-4.41-1.83-9.07-3.54-13.92-5.16v-4.62c0-2.6-1.58-4.93-3.98-5.93-6.87-2.85-14.42-5.4-22.5-7.61-21.35-5.8-46.53-9.15-73.48-9.15s-52.15,3.34-73.48,9.15c-8.09,2.2-15.63,4.76-22.5,7.61-2.4,1-3.98,3.32-3.98,5.93v.09c29.66-7.05,74.37-6.87,74.37-6.87-33.87,2.75-80.25,13.52-81.51,13.91-2.32.86-4.58,1.74-6.78,2.65-2.85,1.18-4.73,3.94-4.73,7.03v12.4s0,12.14,24.17,12.14c-1.52-1.18-2.31-2.37-2.31-3.6,0-2.55,3.44-4.99,9.56-7.12,3.71-1.31,8.41-2.52,13.95-3.57,17.74-3.5,43.96-5.7,73.24-5.7s55.5,2.21,73.24,5.7c5.54,1.05,10.25,2.26,13.95,3.57,6.12,2.13,9.57,4.57,9.57,7.12,0,1.23-.79,2.42-2.31,3.6,24.17,0,24.17-12.14,24.17-12.14v-12.4c0-3.09-1.87-5.85-4.73-7.03Z"/>
  <path id="Fiamma" class="cls-1" d="M388,285.77c-2.9,3.62-9.19,9.46-12.92,12.74,7.56-18.25,6.69-54.41-15.11-70.83-7.61,87.01-73.57-1.61-38.11-53.71-53.22,28.85-51.7,92.74-36.23,124.54-5.84-2.12-12.24-8.13-16.7-13.03-16.83-18.79-28.29-43.62-27.6-65.49,0-91.91,79.58-75.62,78.03-140.21,70.9,33.98,13.84,92.98,39.5,110.57,9.22,6.32,27.52,1.14,25.17-17.18-1.83-14.28-4.58-17.74-4.58-17.98,1.92,2.32,69.44,66.86,8.55,130.57Z"/>
</svg>