<?xml version="1.0" encoding="UTF-8"?>
<svg xmlns="http://www.w3.org/2000/svg" viewBox="0 0 755 665">
  <defs>
    <style>
      .cls-1 {
        fill: #fff;
      }

      .cls-2 {
        fill: #f3ad23;
      }
    </style>
  </defs>
  <rect width="755" height="665"/>
  <g id="Fiamma_15_BN" data-name="Fiamma 15% BN">
    <g>
      <g>
        <g>
          <path class="cls-1" d="M357.58,366.78c-4.31,0-7.97,2.81-9.23,6.71-.31.94-.47,1.95-.47,3.01v147.9c5.66,3.47,11.5,6.85,17.48,10.13l1.94.95v-158.98c0-5.36-4.37-9.72-9.72-9.72Z"/>
          <path class="cls-1" d="M397.67,367.51c-5.36,0-9.72,4.36-9.72,9.72v158.16l1.7-.87c6.07-3.33,11.99-6.75,17.73-10.28v-147.02c0-5.36-4.37-9.72-9.71-9.72Z"/>
          <path class="cls-1" d="M563,163.75c-5.78-1.94-11.52-3.96-17.27-5.99-23.26-8.2-46.28-17.06-69.25-26.03-14.94-5.84-29.81-11.83-44.7-17.8-3.01-1.67-5.96-3.3-8.84-4.81-1.77-22.18-11.78-44.09-48.29-61.61l-19.49-9.48v12.46c.62,30.09-10.33,39.9-30.38,55.35l-.1.1c-4.03,3.11-8.2,6-12.53,8.66-3.97,2.49-8.07,4.79-12.3,6.85-4.63,2.3-9.35,4.6-14.21,6.92-1.87.91-3.8,1.81-5.7,2.72-.53.21-1.07.43-1.6.64-22.98,8.98-46,17.85-69.26,26.06-5.69,2.01-11.39,4.02-17.11,5.95l-15.12,5.09.42,15.94c3.08,117.95,34.03,221.61,114.07,296.63l11.13,9.95c.63.54,1.28,1.07,1.92,1.61v-111.24c0-5.33-3.72-9.66-8.49-10.79-1.69-.42-3.51-.42-5.33.07l-.13.05v-3.69c0-4.44,3.04-8.29,7.36-9.33l.07-.02h.03c2.13-.54,4.28-1.02,6.49-1.5,22.08-4.78,46.93-7.46,73.24-7.46s51.16,2.68,73.24,7.46c2.19.47,4.36.96,6.49,1.5h.02l.08.02c4.32,1.04,7.36,4.89,7.36,9.33v3.69l-.16-.05c-6.97-1.85-13.79,3.5-13.79,10.73v111.03c.55-.47,1.12-.93,1.67-1.4l11.13-9.95c80.04-75.01,110.98-178.66,114.07-296.6l.42-15.97-15.15-5.08Z"/>
          <path class="cls-1" d="M432.33,378.53c-4.96,0-9.04,4.05-9.04,9.04v126.07l7.94-5.45c3.47-2.53,6.85-5.1,10.17-7.71v-112.91c0-4.99-4.08-9.04-9.07-9.04Z"/>
          <path class="cls-1" d="M322.92,378.53c-4.73,0-8.62,3.64-9.02,8.24-.03.26-.05.52-.05.8v113.1c3.24,2.55,6.55,5.06,9.93,7.52l8.18,5.62v-126.24c0-4.96-4.08-9.04-9.04-9.04Z"/>
        </g>
        <path id="Colonna" d="M464.65,370.99l.16.05v-3.69c0-4.44-3.04-8.29-7.36-9.33l-.08-.02h-.02c-2.13-.54-4.29-1.02-6.49-1.5-22.08-4.78-46.97-7.46-73.24-7.46s-51.16,2.68-73.24,7.46c-2.21.47-4.36.96-6.49,1.5h-.03l-.07.02c-4.32,1.04-7.36,4.89-7.36,9.33v3.69l.13-.05c1.82-.49,3.64-.49,5.33-.07,4.76,1.14,8.49,5.46,8.49,10.79v111.24c3.09,2.61,6.24,5.18,9.46,7.71v-113.1c0-.28.01-.54.05-.8.41-4.6,4.29-8.24,9.02-8.24s9.04,4.08,9.04,9.04v126.24l10.54,7.24c1.77,1.13,3.56,2.25,5.37,3.36v-147.9c0-1.06.16-2.06.47-3.01,1.27-3.9,4.93-6.71,9.23-6.71,5.35,0,9.72,4.36,9.72,9.72v158.98l10.49,5.1,10.15-5.18v-158.16c0-5.36,4.36-9.72,9.72-9.72s9.71,4.36,9.71,9.72v147.02c1.72-1.06,3.44-2.13,5.13-3.21l10.79-7.41v-126.07c0-4.99,4.08-9.04,9.04-9.04s9.07,4.05,9.07,9.04v112.91c3.22-2.53,6.37-5.11,9.46-7.72v-111.03c0-7.23,6.81-12.58,13.79-10.73Z"/>
        <path id="Capitello" d="M491.5,328.4c-4.41-1.83-9.07-3.54-13.92-5.16v-4.62c0-2.6-1.58-4.93-3.98-5.93-6.87-2.85-14.42-5.4-22.5-7.61-21.35-5.8-46.53-9.15-73.48-9.15s-52.15,3.34-73.48,9.15c-8.09,2.2-15.63,4.76-22.5,7.61-2.4,1-3.98,3.32-3.98,5.93v.09c29.66-7.05,74.37-6.87,74.37-6.87-33.87,2.75-80.25,13.52-81.51,13.91-2.32.86-4.58,1.74-6.78,2.65-2.85,1.18-4.73,3.94-4.73,7.03v12.4s0,12.14,24.17,12.14c-1.52-1.18-2.31-2.37-2.31-3.6,0-2.55,3.44-4.99,9.56-7.12,3.71-1.31,8.41-2.52,13.95-3.57,17.74-3.5,43.96-5.7,73.24-5.7s55.5,2.21,73.24,5.7c5.54,1.05,10.25,2.26,13.95,3.57,6.12,2.13,9.57,4.57,9.57,7.12,0,1.23-.79,2.42-2.31,3.6,24.17,0,24.17-12.14,24.17-12.14v-12.4c0-3.09-1.87-5.85-4.73-7.03Z"/>
        <path id="Fiamma" class="cls-2" d="M438.27,267.76c-2.9,3.62-9.19,9.46-12.92,12.74,7.56-18.25,6.69-54.41-15.11-70.83-7.61,87.01-73.57-1.61-38.11-53.71-53.22,28.85-51.7,92.74-36.23,124.54-5.84-2.12-12.24-8.13-16.7-13.03-16.83-18.79-28.29-43.62-27.6-65.49,0-91.91,79.58-75.62,78.03-140.21,70.9,33.98,13.84,92.98,39.5,110.57,9.22,6.32,27.52,1.14,25.17-17.18-1.83-14.28-4.58-17.74-4.58-17.98,1.92,2.32,69.44,66.86,8.55,130.57Z"/>
      </g>
      <g>
        <g id="UniversiData">
          <path class="cls-1" d="M648.02,626.9c-3.24,0-5.93-.61-8.09-1.83-2.16-1.22-3.74-2.84-4.75-4.86-1.01-2.09-1.51-4.35-1.51-6.8,0-3.09.69-5.61,2.05-7.55,1.44-1.94,3.27-3.53,5.5-4.75,2.23-1.22,4.57-2.23,7.01-3.02,2.52-.79,4.89-1.55,7.12-2.27,2.3-.79,4.14-1.69,5.5-2.7,1.44-1.08,2.16-2.45,2.16-4.1v-8.42c0-1.87-.32-3.53-.97-4.96-.57-1.51-1.51-2.66-2.8-3.45-1.22-.79-2.84-1.19-4.85-1.19-1.44,0-2.88.22-4.32.65-1.44.36-2.63,1.01-3.56,1.94,2.01.72,3.56,1.83,4.64,3.35,1.15,1.44,1.72,3.09,1.72,4.96,0,2.45-.86,4.39-2.59,5.83-1.65,1.44-3.63,2.16-5.93,2.16-2.59,0-4.57-.79-5.93-2.37-1.3-1.65-1.94-3.63-1.94-5.93,0-2.09.5-3.81,1.51-5.18,1.08-1.37,2.55-2.66,4.42-3.88,2.02-1.15,4.42-2.05,7.23-2.7,2.88-.65,5.97-.97,9.28-.97s6.29.36,8.95,1.08c2.67.65,4.9,1.87,6.69,3.67,1.66,1.65,2.74,3.7,3.24,6.15.51,2.37.76,5.4.76,9.06v29.35c0,1.8.18,3.06.54,3.78.36.65.97.97,1.84.97.64,0,1.26-.18,1.83-.54.65-.36,1.34-.79,2.05-1.3l1.08,1.83c-1.51,1.3-3.27,2.3-5.28,3.02-1.94.65-4.14.97-6.58.97-2.67,0-4.78-.36-6.37-1.08-1.58-.79-2.73-1.83-3.45-3.13-.64-1.29-.97-2.81-.97-4.53-1.72,2.73-3.81,4.89-6.26,6.47-2.45,1.51-5.43,2.27-8.96,2.27ZM655.69,619.99c1.44,0,2.73-.32,3.88-.97,1.22-.72,2.37-1.87,3.45-3.45v-22.12c-.64,1.08-1.54,2.05-2.7,2.91-1.15.86-2.37,1.76-3.67,2.7-1.3.86-2.56,1.83-3.78,2.91-1.15,1.08-2.09,2.41-2.8,3.99-.72,1.58-1.08,3.49-1.08,5.72,0,2.81.61,4.89,1.83,6.26,1.23,1.37,2.84,2.05,4.86,2.05Z"/>
          <path class="cls-1" d="M617.1,551.62v17.7h12.73v2.16h-12.73v55.14h-15.54v-55.14h-9.06v-2.16h9.06v-14.24c3.02,0,5.79-.25,8.31-.76,2.59-.58,5-1.47,7.23-2.7Z"/>
          <path class="cls-1" d="M554.24,626.9c-3.24,0-5.94-.61-8.1-1.83-2.16-1.22-3.74-2.84-4.75-4.86-1.01-2.09-1.51-4.35-1.51-6.8,0-3.09.68-5.61,2.05-7.55,1.44-1.94,3.27-3.53,5.5-4.75,2.23-1.22,4.57-2.23,7.02-3.02,2.52-.79,4.89-1.55,7.12-2.27,2.3-.79,4.14-1.69,5.5-2.7,1.44-1.08,2.16-2.45,2.16-4.1v-8.42c0-1.87-.33-3.53-.97-4.96-.58-1.51-1.51-2.66-2.81-3.45-1.22-.79-2.84-1.19-4.85-1.19-1.44,0-2.87.22-4.32.65-1.44.36-2.62,1.01-3.56,1.94,2.01.72,3.56,1.83,4.64,3.35,1.15,1.44,1.73,3.09,1.73,4.96,0,2.45-.86,4.39-2.59,5.83-1.66,1.44-3.64,2.16-5.94,2.16-2.59,0-4.57-.79-5.93-2.37-1.29-1.65-1.94-3.63-1.94-5.93,0-2.09.5-3.81,1.51-5.18,1.08-1.37,2.55-2.66,4.42-3.88,2.01-1.15,4.42-2.05,7.23-2.7,2.88-.65,5.97-.97,9.28-.97s6.3.36,8.96,1.08c2.66.65,4.89,1.87,6.69,3.67,1.65,1.65,2.73,3.7,3.24,6.15.5,2.37.75,5.4.75,9.06v29.35c0,1.8.18,3.06.54,3.78.36.65.97.97,1.83.97.65,0,1.26-.18,1.84-.54.65-.36,1.33-.79,2.05-1.3l1.08,1.83c-1.51,1.3-3.27,2.3-5.29,3.02-1.94.65-4.13.97-6.58.97-2.66,0-4.78-.36-6.36-1.08-1.59-.79-2.74-1.83-3.45-3.13-.65-1.29-.97-2.81-.97-4.53-1.73,2.73-3.81,4.89-6.26,6.47-2.45,1.51-5.43,2.27-8.95,2.27ZM561.9,619.99c1.44,0,2.74-.32,3.89-.97,1.22-.72,2.37-1.87,3.45-3.45v-22.12c-.65,1.08-1.55,2.05-2.7,2.91-1.15.86-2.37,1.76-3.67,2.7-1.29.86-2.55,1.83-3.78,2.91-1.15,1.08-2.09,2.41-2.81,3.99-.72,1.58-1.08,3.49-1.08,5.72,0,2.81.61,4.89,1.84,6.26,1.22,1.37,2.84,2.05,4.85,2.05Z"/>
          <path class="cls-1" d="M490.73,550.24c14.17,0,24.71,3.24,31.62,9.71,6.91,6.4,10.36,15.61,10.36,27.62,0,7.84-1.69,14.71-5.07,20.61-3.38,5.83-8.31,10.36-14.78,13.6-6.4,3.24-14.1,4.86-23.09,4.86h-32.37v-2.16c2.3-.14,4.03-.43,5.18-.86,1.15-.43,1.91-1.29,2.27-2.59.43-1.3.65-3.24.65-5.83v-53.52c0-2.66-.22-4.6-.65-5.83-.36-1.29-1.15-2.16-2.37-2.59-1.15-.5-2.84-.79-5.07-.86v-2.16c1.8.07,4.21.18,7.23.32,3.09.07,6.15.07,9.17,0,2.59-.07,5.5-.14,8.74-.22,3.31-.07,6.04-.11,8.2-.11ZM490.62,552.18c-3.31,0-5.47.61-6.47,1.83-1.01,1.22-1.51,3.7-1.51,7.45v53.95c0,3.74.5,6.22,1.51,7.45,1.08,1.22,3.27,1.83,6.58,1.83,6.04,0,10.79-1.4,14.24-4.21,3.53-2.88,6.04-7.05,7.55-12.52,1.51-5.47,2.27-12.12,2.27-19.96s-.83-14.71-2.48-19.96c-1.58-5.32-4.14-9.28-7.66-11.87-3.53-2.66-8.2-3.99-14.03-3.99Z"/>
          <path class="cls-1" d="M444.71,569.66v56.98h.86-16.4v-44.03c0-3.24.09-6.3-.92-7.81l-3.92-1.68v-2.27c2.3.22,4.53.32,6.69.32,3.02,0,3.76-.11,6.35-.32,2.66-.29,5.11-.68,7.34-1.19Z"/>
          <path class="cls-1" d="M442.41,548.37c-1.73-1.51-4.1-2.27-7.12-2.27s-5.43.76-7.23,2.27c-1.73,1.44-2.59,3.45-2.59,6.04s.86,4.64,2.59,6.15c1.8,1.44,4.21,2.16,7.23,2.16s5.4-.72,7.12-2.16c1.8-1.51,2.7-3.56,2.7-6.15s-.9-4.6-2.7-6.04Z"/>
          <path class="cls-1" d="M183.47,569.66v56.98h-.86,16.4v-44.03c0-3.24-.09-6.3.92-7.81l3.92-1.68v-2.27c-2.3.22-4.53.32-6.69.32-3.02,0-3.76-.11-6.35-.32-2.66-.29-5.11-.68-7.34-1.19Z"/>
          <path class="cls-1" d="M185.78,548.37c1.73-1.51,4.1-2.27,7.12-2.27s5.43.76,7.23,2.27c1.73,1.44,2.59,3.45,2.59,6.04s-.86,4.64-2.59,6.15c-1.8,1.44-4.21,2.16-7.23,2.16s-5.4-.72-7.12-2.16c-1.8-1.51-2.7-3.56-2.7-6.15s.9-4.6,2.7-6.04Z"/>
          <path class="cls-1" d="M393.79,568.16c3.02,0,5.65.4,7.88,1.19,2.3.72,3.96,1.44,4.96,2.16,2.45,1.65,3.96.58,4.53-3.24h2.27c-.14,2.01-.25,4.5-.32,7.45-.07,2.88-.11,6.73-.11,11.55h-2.27c-.36-2.66-1.04-5.29-2.05-7.88-1.01-2.59-2.48-4.71-4.42-6.37-1.87-1.65-4.32-2.48-7.34-2.48-2.09,0-3.85.61-5.29,1.83-1.44,1.15-2.16,2.84-2.16,5.07s.65,4.06,1.94,5.72c1.3,1.58,2.95,3.13,4.96,4.64,2.09,1.44,4.24,2.99,6.47,4.64,2.37,1.8,4.53,3.6,6.47,5.4,1.94,1.73,3.49,3.63,4.64,5.72,1.15,2.09,1.73,4.57,1.73,7.45,0,3.24-.94,6.08-2.81,8.52-1.87,2.37-4.35,4.21-7.45,5.5-3.02,1.3-6.4,1.94-10.14,1.94-2.16,0-5.83-.65-5.83-.65l-4.32-1.62-2.7-1.19-2.27-1.08-1.94.76s-.9,1.73-1.19,3.02h-2.27c.14-2.3.25-5.11.32-8.42.07-3.31.11-7.7.11-13.16h2.27c.43,3.88,1.22,7.34,2.37,10.36,1.15,2.95,2.7,5.29,4.64,7.01,2.01,1.65,4.53,2.48,7.55,2.48,1.22,0,2.41-.25,3.56-.76,1.15-.5,2.09-1.33,2.81-2.48.79-1.15,1.19-2.63,1.19-4.42,0-3.17-1.04-5.79-3.13-7.88-2.01-2.09-4.6-4.35-7.77-6.8-2.3-1.87-4.5-3.71-6.58-5.5-2.01-1.87-3.67-3.88-4.96-6.04-1.29-2.23-1.94-4.75-1.94-7.55,0-3.24.86-5.97,2.59-8.2,1.73-2.23,3.99-3.88,6.8-4.96,2.88-1.15,5.93-1.73,9.17-1.73Z"/>
          <path class="cls-1" d="M359.17,569.53c2.3,0,4.17.5,5.61,1.51,1.44.94,2.48,2.16,3.13,3.67.72,1.51,1.08,3.09,1.08,4.75,0,2.66-.79,4.86-2.37,6.58-1.51,1.65-3.52,2.48-6.04,2.48s-4.5-.61-5.93-1.83c-1.37-1.29-2.05-2.99-2.05-5.07s.43-3.67,1.29-4.96c.94-1.37,2.09-2.52,3.45-3.45-1.01-.29-2.01-.25-3.02.11-1.37.22-2.66.79-3.88,1.73-1.22.86-2.27,1.98-3.13,3.35-.86,1.29-1.55,2.73-2.05,4.32-.5,1.51-.76,2.99-.76,4.42v39.71h-15.54v-44.03c0-3.24-.5-5.61-1.51-7.12-.94-1.58-2.73-2.37-5.4-2.37v-2.27c2.3.22,4.53.32,6.69.32,3.02,0,5.83-.11,8.42-.32,2.66-.29,5.11-.68,7.34-1.19v10.04c.86-1.94,2.01-3.7,3.45-5.29,1.44-1.58,3.09-2.81,4.96-3.67,1.87-.94,3.96-1.4,6.26-1.4Z"/>
          <path class="cls-1" d="M296.15,568.16c6.33,0,11.29,1.87,14.89,5.61,3.6,3.74,5.4,9.86,5.4,18.34h-35.5l-.22-2.05h22.12c.07-3.53-.14-6.76-.65-9.71-.5-3.02-1.29-5.43-2.37-7.23-1.08-1.8-2.52-2.7-4.32-2.7-2.52,0-4.68,1.58-6.47,4.75-1.73,3.17-2.77,8.42-3.13,15.75l.32.65c-.07.86-.14,1.76-.22,2.7v2.91c0,4.96.68,8.99,2.05,12.09,1.44,3.09,3.24,5.36,5.4,6.8,2.16,1.37,4.35,2.05,6.58,2.05,1.51,0,3.06-.22,4.64-.65,1.65-.5,3.31-1.37,4.96-2.59,1.65-1.3,3.2-3.09,4.64-5.4l1.94.65c-.86,2.73-2.23,5.4-4.1,7.99-1.87,2.59-4.24,4.71-7.12,6.37-2.88,1.65-6.33,2.48-10.36,2.48-4.89,0-9.21-1.04-12.95-3.13-3.74-2.09-6.69-5.25-8.85-9.5-2.09-4.24-3.13-9.64-3.13-16.19s1.12-12.27,3.35-16.73c2.3-4.46,5.43-7.77,9.39-9.93,4.03-2.23,8.6-3.35,13.7-3.35Z"/>
          <path class="cls-1" d="M267.21,570.91v2.16c-1.37.36-2.66,1.22-3.88,2.59-1.22,1.29-2.41,3.53-3.56,6.69l-15.75,44.57h-7.01l-19.21-47.7c-1.15-2.81-2.3-4.5-3.45-5.07-1.08-.65-2.01-.97-2.81-.97v-2.27c2.3.14,4.68.29,7.12.43,2.52.07,5.25.11,8.2.11,2.23,0,4.57-.04,7.01-.11,2.52-.14,4.86-.29,7.01-.43v2.27c-1.51,0-2.88.07-4.1.22-1.15.14-1.94.61-2.37,1.4-.43.79-.36,2.19.22,4.21l12.63,33.45-1.08,1.51,8.52-23.63c1.37-3.88,1.94-7.05,1.73-9.5-.22-2.52-1.01-4.39-2.37-5.61-1.37-1.29-3.2-2.01-5.5-2.16v-2.16c1.08.07,2.23.14,3.45.22,1.29,0,2.52.04,3.67.11h3.24c1.44,0,2.95-.04,4.53-.11,1.58-.07,2.84-.14,3.78-.22Z"/>
          <path class="cls-1" d="M155.33,569.53c3.02,0,5.47.4,7.34,1.19,1.94.72,3.45,1.73,4.53,3.02,1.15,1.37,1.98,3.13,2.48,5.29.58,2.16.86,5.07.86,8.74v39.06h-15.54v-43.6c0-1.8-.18-3.35-.54-4.64-.36-1.37-1.01-2.41-1.94-3.13-.94-.79-2.34-1.19-4.21-1.19s-3.74.54-5.4,1.62c-1.58,1.08-2.88,2.59-3.88,4.53-.94,1.87-1.4,3.99-1.4,6.37v40.03h-15.54v-44.03c0-3.24-.5-5.61-1.51-7.12-.94-1.58-2.73-2.37-5.4-2.37v-2.27c2.3.22,4.53.32,6.69.32,3.02,0,5.83-.11,8.42-.32,2.66-.29,5.11-.68,7.34-1.19v9.71c1.8-3.67,4.24-6.26,7.34-7.77,3.09-1.51,6.55-2.27,10.36-2.27Z"/>
          <path class="cls-1" d="M112.4,548.86v2.16c-2.3.29-4.06.9-5.29,1.83-1.15.86-1.91,2.27-2.27,4.21-.36,1.94-.54,4.68-.54,8.2v28.6c0,4.68-.32,8.96-.97,12.84-.65,3.88-1.8,7.23-3.45,10.04-1.87,3.09-4.6,5.54-8.2,7.34-3.6,1.8-8.17,2.7-13.7,2.7-3.31,0-6.69-.4-10.14-1.19-3.45-.72-6.55-2.12-9.28-4.21-2.3-1.94-4.06-4.14-5.29-6.58-1.22-2.45-2.05-5.32-2.48-8.63-.43-3.38-.65-7.37-.65-11.98v-33.88c0-2.66-.22-4.6-.65-5.83-.36-1.29-1.12-2.16-2.27-2.59-1.15-.5-2.88-.79-5.18-.86v-2.16c1.8.07,4.21.14,7.23.22,3.09.07,6.29.11,9.6.11s6.47-.04,9.5-.11c3.09-.07,5.65-.14,7.66-.22v2.16c-2.45.07-4.32.36-5.61.86-1.22.43-2.05,1.29-2.48,2.59-.43,1.22-.65,3.17-.65,5.83v40.68c0,3.6.22,6.8.65,9.6.5,2.73,1.29,5.04,2.37,6.91,1.15,1.8,2.7,3.17,4.64,4.1,1.94.94,4.35,1.4,7.23,1.4,5.04,0,8.96-1.19,11.76-3.56,2.88-2.37,4.89-5.65,6.04-9.82,1.22-4.24,1.83-9.1,1.83-14.57v-28.49c0-3.96-.25-6.98-.76-9.06-.5-2.16-1.51-3.7-3.02-4.64-1.44-.94-3.67-1.55-6.69-1.83v-2.16c1.37.07,3.17.14,5.4.22,2.23.07,4.32.11,6.26.11,1.73,0,3.42-.04,5.07-.11,1.73-.07,3.17-.14,4.32-.22Z"/>
        </g>
        <path class="cls-1" d="M712.95,616.93c0,5.62-4.41,10.04-10.16,10.04s-10.22-4.41-10.22-10.04,4.53-9.91,10.22-9.91,10.16,4.41,10.16,9.91ZM695.12,616.93c0,4.41,3.26,7.92,7.74,7.92s7.56-3.51,7.56-7.86-3.2-7.98-7.62-7.98-7.68,3.57-7.68,7.92ZM701.22,622.13h-2.3v-9.91c.91-.18,2.18-.3,3.81-.3,1.87,0,2.72.3,3.45.73.54.42.97,1.21.97,2.18,0,1.09-.85,1.93-2.06,2.3v.12c.97.36,1.51,1.09,1.81,2.42.3,1.51.48,2.12.73,2.48h-2.48c-.3-.36-.48-1.27-.79-2.42-.18-1.09-.79-1.57-2.06-1.57h-1.09v3.99ZM701.29,616.51h1.09c1.27,0,2.3-.42,2.3-1.45,0-.91-.66-1.51-2.12-1.51-.6,0-1.03.06-1.27.12v2.84Z"/>
      </g>
    </g>
  </g>
</svg>