<svg xmlns="http://www.w3.org/2000/svg" width="391" height="104" viewBox="0 0 391 104" fill="none">
<g id="School Manager empowerEd &#226;&#128;&#147; White">
<g id="Group 18531">
<path id="Subtract" d="M297.985 12.8744C297.985 3.02027 308.664 -3.12906 317.186 1.81774L355.88 24.2767V48.8832C354.096 45.521 350.321 43.2564 345.518 43.2562C335.912 43.2562 329.804 50.8048 329.804 60.6859C329.805 70.6354 335.5 78.1145 345.381 78.1146C349.978 78.1145 354.096 75.8505 355.88 72.557V77.223H358.8L317.186 101.377C308.664 106.324 297.985 100.175 297.985 90.3207V77.223H326.477V68.3021H308.225V57.7347H326.477V49.0199H308.225V38.1097H326.477V29.1888H297.985V12.8744ZM383.9 40.5414C392.388 45.4685 392.388 57.7266 383.9 62.6537L366.309 72.8636V30.3304L383.9 40.5414ZM348.4 52.0394C353.615 52.0397 356.291 55.9513 356.291 60.6859C356.291 65.4889 353.615 69.3995 348.4 69.3998C343.528 69.3998 340.509 65.6949 340.509 60.6859C340.509 55.6767 343.528 52.0394 348.4 52.0394Z" fill="#FDC700"/>
<g id="Empower">
<path d="M47.1217 76.9576H38.5378V40.2596H47.1217V45.3785C48.6967 41.9922 52.5555 39.3146 57.3593 39.3146C64.0531 39.3146 67.3607 42.2284 68.9357 45.851C70.6682 42.1497 74.9995 39.3146 80.1971 39.3146C91.2222 39.3146 93.4272 46.8747 93.4272 53.7261V76.9576H84.8434V55.3798C84.8434 49.316 82.4809 46.6385 77.9921 46.6385C73.6608 46.6385 70.2745 48.7647 70.2745 57.5061V76.9576H61.6906V55.3011C61.6906 49.2373 59.4856 46.6385 54.9968 46.6385C50.6655 46.6385 47.1217 48.7647 47.1217 57.5061V76.9576Z" fill="#FDC700"/>
<path d="M118.068 39.3146C128.541 39.3146 135.55 47.0322 135.55 58.6086C135.55 69.9487 128.148 77.9026 117.516 77.9026C112.634 77.9026 107.987 75.5401 105.704 71.9963V93.4953H97.1986V40.2596H105.704V45.221C107.987 41.6772 112.87 39.3146 118.068 39.3146ZM116.256 70.2638C122.556 70.2638 126.966 65.4599 126.966 58.6086C126.966 51.7573 122.556 46.9535 116.256 46.9535C109.799 46.9535 105.389 51.6785 105.389 58.6086C105.389 65.5387 109.799 70.2638 116.256 70.2638Z" fill="#FDC700"/>
<path d="M158.533 77.9026C146.405 77.9026 139.16 69.3975 139.16 58.6086C139.16 47.8197 146.405 39.3146 158.533 39.3146C170.66 39.3146 177.906 47.8197 177.906 58.6086C177.906 69.3975 170.66 77.9026 158.533 77.9026ZM158.533 70.2638C165.463 70.2638 169.322 65.3024 169.322 58.6086C169.322 51.9148 165.463 46.9535 158.533 46.9535C151.603 46.9535 147.744 51.9148 147.744 58.6086C147.744 65.3024 151.603 70.2638 158.533 70.2638Z" fill="#FDC700"/>
<path d="M197.63 76.9576H190.385L176.84 40.2596H186.29L193.929 64.5149L201.883 40.2596H211.175L219.129 64.5149L226.768 40.2596H236.218L222.673 76.9576H215.428L206.529 50.8123L197.63 76.9576Z" fill="#FDC700"/>
<path d="M271.663 56.7186C271.663 58.2149 271.585 59.3961 271.427 61.4436H244.179C244.416 67.2712 248.196 70.4213 254.417 70.4213C258.67 70.4213 261.19 69.0825 262.607 66.2475H271.27C270.167 73.0988 263.237 77.9026 254.417 77.9026C242.841 77.9026 235.674 70.5 235.674 58.6086C235.674 46.8747 242.919 39.3146 254.102 39.3146C264.576 39.3146 271.663 46.4022 271.663 56.7186ZM244.179 54.9073H263.237C263.158 49.2373 259.851 46.0872 253.944 46.0872C247.881 46.0872 244.258 49.7098 244.179 54.9073Z" fill="#FDC700"/>
<path d="M285.118 76.9576H276.534V40.2596H285.118V47.3472C286.457 42.1497 290.867 39.7871 294.883 39.7871C296.222 39.7871 297.324 39.8659 298.269 40.1021V47.9772C296.93 47.8197 296.222 47.8197 294.883 47.8197C288.819 47.8197 285.118 52.3873 285.118 60.7349V76.9576Z" fill="#FDC700"/>
</g>
<path id="Empower_2" d="M35.9906 56.863C35.9906 58.3593 35.9119 59.5405 35.7544 61.5881H8.50657C8.74282 67.4156 12.5229 70.5657 18.7442 70.5657C22.9967 70.5657 25.5168 69.2269 26.9343 66.3919H35.5969C34.4944 73.2432 27.5643 78.047 18.7442 78.047C7.1678 78.047 0.00146484 70.6444 0.00146484 58.753C0.00146484 47.0191 7.24655 39.459 18.4292 39.459C28.9031 39.459 35.9906 46.5466 35.9906 56.863ZM8.50657 55.0517H27.5643C27.4855 49.3817 24.178 46.2316 18.2717 46.2316C12.2079 46.2316 8.58532 49.8542 8.50657 55.0517Z" fill="#FDC700"/>
<path id="SCHOOL MANAGER" d="M10.234 24.344C8.42067 24.344 6.834 24.0607 5.474 23.494C4.114 22.9047 3.06 22.0774 2.312 21.012C1.58667 19.924 1.224 18.666 1.224 17.238V16.49C1.224 16.3767 1.258 16.286 1.326 16.218C1.41667 16.1274 1.51867 16.082 1.632 16.082H5.508C5.62133 16.082 5.712 16.1274 5.78 16.218C5.87067 16.286 5.916 16.3767 5.916 16.49V17C5.916 17.9067 6.33533 18.6774 7.174 19.312C8.01267 19.924 9.146 20.23 10.574 20.23C11.7753 20.23 12.6707 19.9807 13.26 19.482C13.8493 18.9607 14.144 18.326 14.144 17.578C14.144 17.034 13.9627 16.5807 13.6 16.218C13.2373 15.8327 12.7387 15.504 12.104 15.232C11.492 14.9374 10.506 14.5407 9.146 14.042C7.62733 13.5207 6.33533 12.988 5.27 12.444C4.22733 11.9 3.34333 11.1634 2.618 10.234C1.91533 9.28202 1.564 8.11469 1.564 6.73202C1.564 5.37202 1.91533 4.18202 2.618 3.16202C3.32067 2.14202 4.29533 1.36002 5.542 0.816021C6.78867 0.272021 8.228 2.13385e-05 9.86 2.13385e-05C11.5827 2.13385e-05 13.1127 0.306021 14.45 0.91802C15.81 1.53002 16.864 2.39135 17.612 3.50202C18.3827 4.59002 18.768 5.85935 18.768 7.31002V7.82002C18.768 7.93335 18.7227 8.03535 18.632 8.12602C18.564 8.19402 18.4733 8.22802 18.36 8.22802H14.45C14.3367 8.22802 14.2347 8.19402 14.144 8.12602C14.076 8.03535 14.042 7.93335 14.042 7.82002V7.54802C14.042 6.59602 13.6453 5.79135 12.852 5.13402C12.0813 4.45402 11.016 4.11402 9.656 4.11402C8.59067 4.11402 7.752 4.34069 7.14 4.79402C6.55067 5.24735 6.256 5.87069 6.256 6.66402C6.256 7.23069 6.426 7.70669 6.766 8.09202C7.12867 8.47735 7.65 8.82869 8.33 9.14602C9.03267 9.44069 10.1093 9.84869 11.56 10.37C13.1693 10.9594 14.4273 11.4807 15.334 11.934C16.2633 12.3874 17.0907 13.0674 17.816 13.974C18.564 14.858 18.938 16.014 18.938 17.442C18.938 19.5727 18.156 21.2614 16.592 22.508C15.028 23.732 12.9087 24.344 10.234 24.344ZM30.6587 24.344C28.8907 24.344 27.338 24.004 26.0007 23.324C24.6634 22.6214 23.632 21.6467 22.9067 20.4C22.1814 19.1534 21.8187 17.714 21.8187 16.082V8.22802C21.8187 6.59602 22.1814 5.15669 22.9067 3.91002C23.632 2.66335 24.6634 1.70002 26.0007 1.02002C27.338 0.340021 28.8907 2.13385e-05 30.6587 2.13385e-05C32.404 2.13385e-05 33.934 0.328688 35.2487 0.986021C36.586 1.62069 37.6174 2.53869 38.3427 3.74002C39.0907 4.91869 39.4647 6.29002 39.4647 7.85402C39.4647 8.05802 39.3287 8.18269 39.0567 8.22802L35.0787 8.46602H35.0107C34.784 8.46602 34.6707 8.34135 34.6707 8.09202C34.6707 6.89069 34.2967 5.92735 33.5487 5.20202C32.8234 4.47669 31.86 4.11402 30.6587 4.11402C29.4347 4.11402 28.4487 4.47669 27.7007 5.20202C26.9754 5.92735 26.6127 6.89069 26.6127 8.09202V16.286C26.6127 17.4647 26.9754 18.4167 27.7007 19.142C28.4487 19.8674 29.4347 20.23 30.6587 20.23C31.86 20.23 32.8234 19.8674 33.5487 19.142C34.2967 18.4167 34.6707 17.4647 34.6707 16.286C34.6707 16.0367 34.8067 15.912 35.0787 15.912L39.0567 16.082C39.17 16.082 39.2607 16.116 39.3287 16.184C39.4194 16.252 39.4647 16.3314 39.4647 16.422C39.4647 17.986 39.0907 19.3687 38.3427 20.57C37.6174 21.7714 36.586 22.7007 35.2487 23.358C33.934 24.0154 32.404 24.344 30.6587 24.344ZM55.6283 0.680021C55.6283 0.566687 55.6623 0.476021 55.7303 0.40802C55.8209 0.317353 55.9229 0.27202 56.0363 0.27202H60.0143C60.1276 0.27202 60.2183 0.317353 60.2863 0.40802C60.3769 0.476021 60.4223 0.566687 60.4223 0.680021V23.664C60.4223 23.7774 60.3769 23.8794 60.2863 23.97C60.2183 24.038 60.1276 24.072 60.0143 24.072H56.0363C55.9229 24.072 55.8209 24.038 55.7303 23.97C55.6623 23.8794 55.6283 23.7774 55.6283 23.664V14.28C55.6283 14.1667 55.5716 14.11 55.4583 14.11H47.9443C47.8309 14.11 47.7743 14.1667 47.7743 14.28V23.664C47.7743 23.7774 47.7289 23.8794 47.6383 23.97C47.5703 24.038 47.4796 24.072 47.3663 24.072H43.3883C43.2749 24.072 43.1729 24.038 43.0823 23.97C43.0143 23.8794 42.9803 23.7774 42.9803 23.664V0.680021C42.9803 0.566687 43.0143 0.476021 43.0823 0.40802C43.1729 0.317353 43.2749 0.27202 43.3883 0.27202H47.3663C47.4796 0.27202 47.5703 0.317353 47.6383 0.40802C47.7289 0.476021 47.7743 0.566687 47.7743 0.680021V9.82602C47.7743 9.93935 47.8309 9.99602 47.9443 9.99602H55.4583C55.5716 9.99602 55.6283 9.93935 55.6283 9.82602V0.680021ZM72.7959 24.446C71.0279 24.446 69.4639 24.0834 68.1039 23.358C66.7665 22.6327 65.7239 21.624 64.9759 20.332C64.2279 19.0174 63.8539 17.51 63.8539 15.81V8.53402C63.8539 6.85669 64.2279 5.37202 64.9759 4.08002C65.7239 2.78802 66.7665 1.79069 68.1039 1.08802C69.4639 0.362687 71.0279 2.13385e-05 72.7959 2.13385e-05C74.5865 2.13385e-05 76.1505 0.362687 77.4879 1.08802C78.8479 1.79069 79.9019 2.78802 80.6499 4.08002C81.3979 5.37202 81.7719 6.85669 81.7719 8.53402V15.81C81.7719 17.51 81.3979 19.0174 80.6499 20.332C79.9019 21.6467 78.8479 22.6667 77.4879 23.392C76.1505 24.0947 74.5865 24.446 72.7959 24.446ZM72.7959 20.332C74.0425 20.332 75.0512 19.9354 75.8219 19.142C76.5925 18.3487 76.9779 17.2947 76.9779 15.98V8.50002C76.9779 7.18535 76.5925 6.13135 75.8219 5.33802C75.0739 4.52202 74.0652 4.11402 72.7959 4.11402C71.5492 4.11402 70.5405 4.52202 69.7699 5.33802C69.0219 6.13135 68.6479 7.18535 68.6479 8.50002V15.98C68.6479 17.2947 69.0219 18.3487 69.7699 19.142C70.5405 19.9354 71.5492 20.332 72.7959 20.332ZM93.913 24.446C92.145 24.446 90.581 24.0834 89.221 23.358C87.8837 22.6327 86.841 21.624 86.093 20.332C85.345 19.0174 84.971 17.51 84.971 15.81V8.53402C84.971 6.85669 85.345 5.37202 86.093 4.08002C86.841 2.78802 87.8837 1.79069 89.221 1.08802C90.581 0.362687 92.145 2.13385e-05 93.913 2.13385e-05C95.7037 2.13385e-05 97.2677 0.362687 98.605 1.08802C99.965 1.79069 101.019 2.78802 101.767 4.08002C102.515 5.37202 102.889 6.85669 102.889 8.53402V15.81C102.889 17.51 102.515 19.0174 101.767 20.332C101.019 21.6467 99.965 22.6667 98.605 23.392C97.2677 24.0947 95.7037 24.446 93.913 24.446ZM93.913 20.332C95.1597 20.332 96.1684 19.9354 96.939 19.142C97.7097 18.3487 98.095 17.2947 98.095 15.98V8.50002C98.095 7.18535 97.7097 6.13135 96.939 5.33802C96.191 4.52202 95.1824 4.11402 93.913 4.11402C92.6664 4.11402 91.6577 4.52202 90.887 5.33802C90.139 6.13135 89.765 7.18535 89.765 8.50002V15.98C89.765 17.2947 90.139 18.3487 90.887 19.142C91.6577 19.9354 92.6664 20.332 93.913 20.332ZM106.972 24.072C106.859 24.072 106.757 24.038 106.666 23.97C106.598 23.8794 106.564 23.7774 106.564 23.664V0.680021C106.564 0.566687 106.598 0.476021 106.666 0.40802C106.757 0.317353 106.859 0.27202 106.972 0.27202H110.95C111.064 0.27202 111.154 0.317353 111.222 0.40802C111.313 0.476021 111.358 0.566687 111.358 0.680021V19.788C111.358 19.9014 111.415 19.958 111.528 19.958H122.646C122.76 19.958 122.85 20.0034 122.918 20.094C123.009 20.162 123.054 20.2527 123.054 20.366V23.664C123.054 23.7774 123.009 23.8794 122.918 23.97C122.85 24.038 122.76 24.072 122.646 24.072H106.972ZM148.128 0.54402C148.241 0.362687 148.4 0.27202 148.604 0.27202H152.582C152.695 0.27202 152.786 0.317353 152.854 0.40802C152.945 0.476021 152.99 0.566687 152.99 0.680021V23.664C152.99 23.7774 152.945 23.8794 152.854 23.97C152.786 24.038 152.695 24.072 152.582 24.072H148.604C148.491 24.072 148.389 24.038 148.298 23.97C148.23 23.8794 148.196 23.7774 148.196 23.664V8.67002C148.196 8.57935 148.173 8.53402 148.128 8.53402C148.083 8.53402 148.037 8.56802 147.992 8.63602L144.388 14.28C144.275 14.4614 144.116 14.552 143.912 14.552H141.906C141.702 14.552 141.543 14.4614 141.43 14.28L137.826 8.63602C137.781 8.56802 137.735 8.54535 137.69 8.56802C137.645 8.56802 137.622 8.61335 137.622 8.70402V23.664C137.622 23.7774 137.577 23.8794 137.486 23.97C137.418 24.038 137.327 24.072 137.214 24.072H133.236C133.123 24.072 133.021 24.038 132.93 23.97C132.862 23.8794 132.828 23.7774 132.828 23.664V0.680021C132.828 0.566687 132.862 0.476021 132.93 0.40802C133.021 0.317353 133.123 0.27202 133.236 0.27202H137.214C137.418 0.27202 137.577 0.362687 137.69 0.54402L142.79 8.46602C142.858 8.60202 142.926 8.60202 142.994 8.46602L148.128 0.54402ZM172.263 24.072C172.036 24.072 171.889 23.9587 171.821 23.732L170.801 20.4C170.755 20.3094 170.699 20.264 170.631 20.264H162.267C162.199 20.264 162.142 20.3094 162.097 20.4L161.111 23.732C161.043 23.9587 160.895 24.072 160.669 24.072H156.351C156.215 24.072 156.113 24.038 156.045 23.97C155.977 23.8794 155.965 23.7547 156.011 23.596L163.355 0.61202C163.423 0.385353 163.57 0.27202 163.797 0.27202H169.135C169.361 0.27202 169.509 0.385353 169.577 0.61202L176.921 23.596C176.943 23.6414 176.955 23.698 176.955 23.766C176.955 23.97 176.83 24.072 176.581 24.072H172.263ZM163.321 16.354C163.298 16.49 163.343 16.558 163.457 16.558H169.441C169.577 16.558 169.622 16.49 169.577 16.354L166.517 6.25602C166.494 6.16535 166.46 6.13135 166.415 6.15402C166.369 6.15402 166.335 6.18802 166.313 6.25602L163.321 16.354ZM193.611 0.680021C193.611 0.566687 193.645 0.476021 193.713 0.40802C193.804 0.317353 193.906 0.27202 194.019 0.27202H197.997C198.11 0.27202 198.201 0.317353 198.269 0.40802C198.36 0.476021 198.405 0.566687 198.405 0.680021V23.664C198.405 23.7774 198.36 23.8794 198.269 23.97C198.201 24.038 198.11 24.072 197.997 24.072H194.155C193.928 24.072 193.77 23.9814 193.679 23.8L184.873 9.24802C184.828 9.18002 184.782 9.15735 184.737 9.18002C184.692 9.18002 184.669 9.22535 184.669 9.31602L184.737 23.664C184.737 23.7774 184.692 23.8794 184.601 23.97C184.533 24.038 184.442 24.072 184.329 24.072H180.351C180.238 24.072 180.136 24.038 180.045 23.97C179.977 23.8794 179.943 23.7774 179.943 23.664V0.680021C179.943 0.566687 179.977 0.476021 180.045 0.40802C180.136 0.317353 180.238 0.27202 180.351 0.27202H184.193C184.42 0.27202 184.578 0.362687 184.669 0.54402L193.441 15.028C193.486 15.096 193.532 15.13 193.577 15.13C193.622 15.1074 193.645 15.0507 193.645 14.96L193.611 0.680021ZM217.684 24.072C217.458 24.072 217.31 23.9587 217.242 23.732L216.222 20.4C216.177 20.3094 216.12 20.264 216.052 20.264H207.688C207.62 20.264 207.564 20.3094 207.518 20.4L206.532 23.732C206.464 23.9587 206.317 24.072 206.09 24.072H201.772C201.636 24.072 201.534 24.038 201.466 23.97C201.398 23.8794 201.387 23.7547 201.432 23.596L208.776 0.61202C208.844 0.385353 208.992 0.27202 209.218 0.27202H214.556C214.783 0.27202 214.93 0.385353 214.998 0.61202L222.342 23.596C222.365 23.6414 222.376 23.698 222.376 23.766C222.376 23.97 222.252 24.072 222.002 24.072H217.684ZM208.742 16.354C208.72 16.49 208.765 16.558 208.878 16.558H214.862C214.998 16.558 215.044 16.49 214.998 16.354L211.938 6.25602C211.916 6.16535 211.882 6.13135 211.836 6.15402C211.791 6.15402 211.757 6.18802 211.734 6.25602L208.742 16.354ZM232.999 24.344C231.253 24.344 229.712 23.9927 228.375 23.29C227.037 22.5874 225.995 21.6127 225.247 20.366C224.521 19.0967 224.159 17.6347 224.159 15.98V8.36402C224.159 6.70935 224.521 5.24735 225.247 3.97802C225.995 2.70869 227.037 1.73402 228.375 1.05402C229.712 0.351354 231.253 2.13385e-05 232.999 2.13385e-05C234.721 2.13385e-05 236.24 0.340021 237.555 1.02002C238.892 1.70002 239.923 2.62935 240.649 3.80802C241.397 4.96402 241.771 6.25602 241.771 7.68402V7.92202C241.771 8.03535 241.725 8.13735 241.635 8.22802C241.567 8.29602 241.476 8.33002 241.363 8.33002H237.385C237.271 8.33002 237.169 8.29602 237.079 8.22802C237.011 8.13735 236.977 8.03535 236.977 7.92202V7.82002C236.977 6.77735 236.614 5.90469 235.889 5.20202C235.163 4.47669 234.2 4.11402 232.999 4.11402C231.775 4.11402 230.789 4.49935 230.041 5.27002C229.315 6.01802 228.953 7.00402 228.953 8.22802V16.116C228.953 17.34 229.349 18.3374 230.143 19.108C230.936 19.856 231.945 20.23 233.169 20.23C234.347 20.23 235.288 19.924 235.991 19.312C236.693 18.6774 237.045 17.8047 237.045 16.694V15.164C237.045 15.0507 236.988 14.994 236.875 14.994H233.067C232.953 14.994 232.851 14.96 232.761 14.892C232.693 14.8014 232.659 14.6994 232.659 14.586V11.458C232.659 11.3447 232.693 11.254 232.761 11.186C232.851 11.0954 232.953 11.05 233.067 11.05H241.363C241.476 11.05 241.567 11.0954 241.635 11.186C241.725 11.254 241.771 11.3447 241.771 11.458V15.946C241.771 17.6687 241.408 19.1647 240.683 20.434C239.957 21.7034 238.926 22.678 237.589 23.358C236.274 24.0154 234.744 24.344 232.999 24.344ZM261.977 3.97802C261.977 4.09135 261.932 4.19335 261.841 4.28402C261.773 4.35202 261.682 4.38602 261.569 4.38602H250.417C250.304 4.38602 250.247 4.44269 250.247 4.55602V9.82602C250.247 9.93935 250.304 9.99602 250.417 9.99602H257.727C257.84 9.99602 257.931 10.0414 257.999 10.132C258.09 10.2 258.135 10.2907 258.135 10.404V13.702C258.135 13.8154 258.09 13.9174 257.999 14.008C257.931 14.076 257.84 14.11 257.727 14.11H250.417C250.304 14.11 250.247 14.1667 250.247 14.28V19.788C250.247 19.9014 250.304 19.958 250.417 19.958H261.569C261.682 19.958 261.773 20.0034 261.841 20.094C261.932 20.162 261.977 20.2527 261.977 20.366V23.664C261.977 23.7774 261.932 23.8794 261.841 23.97C261.773 24.038 261.682 24.072 261.569 24.072H245.861C245.748 24.072 245.646 24.038 245.555 23.97C245.487 23.8794 245.453 23.7774 245.453 23.664V0.680021C245.453 0.566687 245.487 0.476021 245.555 0.40802C245.646 0.317353 245.748 0.27202 245.861 0.27202H261.569C261.682 0.27202 261.773 0.317353 261.841 0.40802C261.932 0.476021 261.977 0.566687 261.977 0.680021V3.97802ZM278.364 24.072C278.138 24.072 277.979 23.97 277.888 23.766L273.638 14.348C273.593 14.2574 273.525 14.212 273.434 14.212H270.272C270.159 14.212 270.102 14.2687 270.102 14.382V23.664C270.102 23.7774 270.057 23.8794 269.966 23.97C269.898 24.038 269.808 24.072 269.694 24.072H265.716C265.603 24.072 265.501 24.038 265.41 23.97C265.342 23.8794 265.308 23.7774 265.308 23.664V0.680021C265.308 0.566687 265.342 0.476021 265.41 0.40802C265.501 0.317353 265.603 0.27202 265.716 0.27202H275.44C276.891 0.27202 278.16 0.566687 279.248 1.15602C280.359 1.74535 281.209 2.58402 281.798 3.67202C282.41 4.76002 282.716 6.01802 282.716 7.44602C282.716 8.98735 282.331 10.3134 281.56 11.424C280.79 12.512 279.713 13.2827 278.33 13.736C278.217 13.7814 278.183 13.8607 278.228 13.974L282.852 23.596C282.898 23.6867 282.92 23.7547 282.92 23.8C282.92 23.9814 282.796 24.072 282.546 24.072H278.364ZM270.272 4.38602C270.159 4.38602 270.102 4.44269 270.102 4.55602V10.37C270.102 10.4834 270.159 10.54 270.272 10.54H274.726C275.678 10.54 276.449 10.2567 277.038 9.69002C277.65 9.12335 277.956 8.38669 277.956 7.48002C277.956 6.57335 277.65 5.83669 277.038 5.27002C276.449 4.68069 275.678 4.38602 274.726 4.38602H270.272Z" fill="#FDC700"/>
</g>
</g>
</svg>
