<svg xmlns="http://www.w3.org/2000/svg" width="391" height="104" viewBox="0 0 391 104" fill="none">
<g id="Course Studio empowerEd &#226;&#128;&#147; White">
<g id="Group 18534">
<path id="Subtract" d="M297.985 12.8743C297.985 3.02021 308.664 -3.12912 317.186 1.81768L355.88 24.2767V48.8831C354.096 45.5209 350.321 43.2564 345.518 43.2562C335.912 43.2562 329.804 50.8047 329.804 60.6858C329.805 70.6353 335.5 78.1144 345.381 78.1146C349.978 78.1144 354.096 75.8504 355.88 72.5569V77.223H358.8L317.186 101.377C308.664 106.324 297.985 100.175 297.985 90.3206V77.223H326.477V68.3021H308.225V57.7347H326.477V49.0198H308.225V38.1097H326.477V29.1898H297.985V12.8743ZM383.9 40.5413C392.388 45.4685 392.388 57.7266 383.9 62.6536L366.309 72.8636V30.3304L383.9 40.5413ZM348.4 52.0394C353.615 52.0396 356.291 55.9513 356.291 60.6858C356.291 65.4889 353.615 69.3995 348.4 69.3997C343.528 69.3997 340.509 65.6948 340.509 60.6858C340.509 55.6767 343.528 52.0394 348.4 52.0394Z" fill="#FDC700"/>
<g id="Empower">
<path d="M47.1217 76.9575H38.5378V40.2596H47.1217V45.3784C48.6967 41.9921 52.5555 39.3146 57.3593 39.3146C64.0531 39.3146 67.3607 42.2284 68.9357 45.8509C70.6682 42.1496 74.9995 39.3146 80.1971 39.3146C91.2222 39.3146 93.4272 46.8747 93.4272 53.726V76.9575H84.8434V55.3798C84.8434 49.3159 82.4809 46.6384 77.9921 46.6384C73.6608 46.6384 70.2745 48.7647 70.2745 57.506V76.9575H61.6906V55.301C61.6906 49.2372 59.4856 46.6384 54.9968 46.6384C50.6655 46.6384 47.1217 48.7647 47.1217 57.506V76.9575Z" fill="#FDC700"/>
<path d="M118.068 39.3146C128.541 39.3146 135.55 47.0322 135.55 58.6086C135.55 69.9487 128.148 77.9025 117.516 77.9025C112.634 77.9025 107.987 75.54 105.704 71.9962V93.4952H97.1986V40.2596H105.704V45.2209C107.987 41.6771 112.87 39.3146 118.068 39.3146ZM116.256 70.2637C122.556 70.2637 126.966 65.4599 126.966 58.6086C126.966 51.7572 122.556 46.9534 116.256 46.9534C109.799 46.9534 105.389 51.6785 105.389 58.6086C105.389 65.5386 109.799 70.2637 116.256 70.2637Z" fill="#FDC700"/>
<path d="M158.533 77.9025C146.405 77.9025 139.16 69.3974 139.16 58.6086C139.16 47.8197 146.405 39.3146 158.533 39.3146C170.66 39.3146 177.906 47.8197 177.906 58.6086C177.906 69.3974 170.66 77.9025 158.533 77.9025ZM158.533 70.2637C165.463 70.2637 169.322 65.3024 169.322 58.6086C169.322 51.9147 165.463 46.9534 158.533 46.9534C151.603 46.9534 147.744 51.9147 147.744 58.6086C147.744 65.3024 151.603 70.2637 158.533 70.2637Z" fill="#FDC700"/>
<path d="M197.63 76.9575H190.385L176.84 40.2596H186.29L193.929 64.5149L201.883 40.2596H211.175L219.129 64.5149L226.768 40.2596H236.218L222.673 76.9575H215.428L206.529 50.8122L197.63 76.9575Z" fill="#FDC700"/>
<path d="M271.663 56.7185C271.663 58.2148 271.585 59.3961 271.427 61.4436H244.179C244.416 67.2712 248.196 70.4212 254.417 70.4212C258.67 70.4212 261.19 69.0824 262.607 66.2474H271.27C270.167 73.0987 263.237 77.9025 254.417 77.9025C242.841 77.9025 235.674 70.4999 235.674 58.6086C235.674 46.8747 242.919 39.3146 254.102 39.3146C264.576 39.3146 271.663 46.4022 271.663 56.7185ZM244.179 54.9073H263.237C263.158 49.2372 259.851 46.0872 253.944 46.0872C247.881 46.0872 244.258 49.7097 244.179 54.9073Z" fill="#FDC700"/>
<path d="M285.118 76.9575H276.534V40.2596H285.118V47.3472C286.457 42.1496 290.867 39.7871 294.883 39.7871C296.222 39.7871 297.324 39.8658 298.269 40.1021V47.9772C296.93 47.8197 296.222 47.8197 294.883 47.8197C288.819 47.8197 285.118 52.3872 285.118 60.7348V76.9575Z" fill="#FDC700"/>
</g>
<path id="Empower_2" d="M35.9906 56.8629C35.9906 58.3592 35.9119 59.5405 35.7544 61.588H8.50657C8.74282 67.4156 12.5229 70.5656 18.7442 70.5656C22.9967 70.5656 25.5168 69.2268 26.9343 66.3918H35.5969C34.4944 73.2431 27.5643 78.0469 18.7442 78.0469C7.1678 78.0469 0.00146484 70.6444 0.00146484 58.753C0.00146484 47.0191 7.24655 39.459 18.4292 39.459C28.9031 39.459 35.9906 46.5466 35.9906 56.8629ZM8.50657 55.0517H27.5643C27.4855 49.3816 24.178 46.2316 18.2717 46.2316C12.2079 46.2316 8.58532 49.8541 8.50657 55.0517Z" fill="#FDC700"/>
<path id="COURSE STUDIO" d="M10.438 24.344C8.67 24.344 7.11733 24.004 5.78 23.324C4.44267 22.6214 3.41133 21.6467 2.686 20.4C1.96067 19.1534 1.598 17.714 1.598 16.082V8.22802C1.598 6.59602 1.96067 5.15669 2.686 3.91002C3.41133 2.66335 4.44267 1.70002 5.78 1.02002C7.11733 0.340021 8.67 2.13385e-05 10.438 2.13385e-05C12.1833 2.13385e-05 13.7133 0.328688 15.028 0.986021C16.3653 1.62069 17.3967 2.53869 18.122 3.74002C18.87 4.91869 19.244 6.29002 19.244 7.85402C19.244 8.05802 19.108 8.18269 18.836 8.22802L14.858 8.46602H14.79C14.5633 8.46602 14.45 8.34135 14.45 8.09202C14.45 6.89069 14.076 5.92735 13.328 5.20202C12.6027 4.47669 11.6393 4.11402 10.438 4.11402C9.214 4.11402 8.228 4.47669 7.48 5.20202C6.75467 5.92735 6.392 6.89069 6.392 8.09202V16.286C6.392 17.4647 6.75467 18.4167 7.48 19.142C8.228 19.8674 9.214 20.23 10.438 20.23C11.6393 20.23 12.6027 19.8674 13.328 19.142C14.076 18.4167 14.45 17.4647 14.45 16.286C14.45 16.0367 14.586 15.912 14.858 15.912L18.836 16.082C18.9493 16.082 19.04 16.116 19.108 16.184C19.1987 16.252 19.244 16.3314 19.244 16.422C19.244 17.986 18.87 19.3687 18.122 20.57C17.3967 21.7714 16.3653 22.7007 15.028 23.358C13.7133 24.0154 12.1833 24.344 10.438 24.344ZM32.5855 24.446C30.8175 24.446 29.2535 24.0834 27.8935 23.358C26.5562 22.6327 25.5135 21.624 24.7655 20.332C24.0175 19.0174 23.6435 17.51 23.6435 15.81V8.53402C23.6435 6.85669 24.0175 5.37202 24.7655 4.08002C25.5135 2.78802 26.5562 1.79069 27.8935 1.08802C29.2535 0.362687 30.8175 2.13385e-05 32.5855 2.13385e-05C34.3762 2.13385e-05 35.9402 0.362687 37.2775 1.08802C38.6375 1.79069 39.6915 2.78802 40.4395 4.08002C41.1875 5.37202 41.5615 6.85669 41.5615 8.53402V15.81C41.5615 17.51 41.1875 19.0174 40.4395 20.332C39.6915 21.6467 38.6375 22.6667 37.2775 23.392C35.9402 24.0947 34.3762 24.446 32.5855 24.446ZM32.5855 20.332C33.8322 20.332 34.8409 19.9354 35.6115 19.142C36.3822 18.3487 36.7675 17.2947 36.7675 15.98V8.50002C36.7675 7.18535 36.3822 6.13135 35.6115 5.33802C34.8635 4.52202 33.8549 4.11402 32.5855 4.11402C31.3389 4.11402 30.3302 4.52202 29.5595 5.33802C28.8115 6.13135 28.4375 7.18535 28.4375 8.50002V15.98C28.4375 17.2947 28.8115 18.3487 29.5595 19.142C30.3302 19.9354 31.3389 20.332 32.5855 20.332ZM55.2327 24.344C53.4874 24.344 51.9461 24.004 50.6087 23.324C49.2941 22.644 48.2627 21.692 47.5147 20.468C46.7894 19.2214 46.4267 17.7934 46.4267 16.184V0.680021C46.4267 0.566687 46.4607 0.476021 46.5287 0.40802C46.6194 0.317353 46.7214 0.27202 46.8347 0.27202H50.8127C50.9261 0.27202 51.0167 0.317353 51.0847 0.40802C51.1754 0.476021 51.2207 0.566687 51.2207 0.680021V16.218C51.2207 17.4194 51.5834 18.394 52.3087 19.142C53.0567 19.8674 54.0314 20.23 55.2327 20.23C56.4341 20.23 57.3974 19.8674 58.1227 19.142C58.8707 18.394 59.2447 17.4194 59.2447 16.218V0.680021C59.2447 0.566687 59.2787 0.476021 59.3467 0.40802C59.4374 0.317353 59.5394 0.27202 59.6527 0.27202H63.6307C63.7441 0.27202 63.8347 0.317353 63.9027 0.40802C63.9934 0.476021 64.0387 0.566687 64.0387 0.680021V16.184C64.0387 17.7934 63.6647 19.2214 62.9167 20.468C62.1914 21.692 61.1601 22.644 59.8227 23.324C58.5081 24.004 56.9781 24.344 55.2327 24.344ZM82.3955 24.072C82.1689 24.072 82.0102 23.97 81.9195 23.766L77.6695 14.348C77.6242 14.2574 77.5562 14.212 77.4655 14.212H74.3035C74.1902 14.212 74.1335 14.2687 74.1335 14.382V23.664C74.1335 23.7774 74.0882 23.8794 73.9975 23.97C73.9295 24.038 73.8389 24.072 73.7255 24.072H69.7475C69.6342 24.072 69.5322 24.038 69.4415 23.97C69.3735 23.8794 69.3395 23.7774 69.3395 23.664V0.680021C69.3395 0.566687 69.3735 0.476021 69.4415 0.40802C69.5322 0.317353 69.6342 0.27202 69.7475 0.27202H79.4715C80.9222 0.27202 82.1915 0.566687 83.2795 1.15602C84.3902 1.74535 85.2402 2.58402 85.8295 3.67202C86.4415 4.76002 86.7475 6.01802 86.7475 7.44602C86.7475 8.98735 86.3622 10.3134 85.5915 11.424C84.8209 12.512 83.7442 13.2827 82.3615 13.736C82.2482 13.7814 82.2142 13.8607 82.2595 13.974L86.8835 23.596C86.9289 23.6867 86.9516 23.7547 86.9516 23.8C86.9516 23.9814 86.8269 24.072 86.5775 24.072H82.3955ZM74.3035 4.38602C74.1902 4.38602 74.1335 4.44269 74.1335 4.55602V10.37C74.1335 10.4834 74.1902 10.54 74.3035 10.54H78.7575C79.7095 10.54 80.4802 10.2567 81.0695 9.69002C81.6815 9.12335 81.9875 8.38669 81.9875 7.48002C81.9875 6.57335 81.6815 5.83669 81.0695 5.27002C80.4802 4.68069 79.7095 4.38602 78.7575 4.38602H74.3035ZM99.7443 24.344C97.931 24.344 96.3443 24.0607 94.9843 23.494C93.6243 22.9047 92.5703 22.0774 91.8223 21.012C91.097 19.924 90.7343 18.666 90.7343 17.238V16.49C90.7343 16.3767 90.7683 16.286 90.8363 16.218C90.927 16.1274 91.029 16.082 91.1423 16.082H95.0183C95.1316 16.082 95.2223 16.1274 95.2903 16.218C95.381 16.286 95.4263 16.3767 95.4263 16.49V17C95.4263 17.9067 95.8456 18.6774 96.6843 19.312C97.523 19.924 98.6563 20.23 100.084 20.23C101.286 20.23 102.181 19.9807 102.77 19.482C103.36 18.9607 103.654 18.326 103.654 17.578C103.654 17.034 103.473 16.5807 103.11 16.218C102.748 15.8327 102.249 15.504 101.614 15.232C101.002 14.9374 100.016 14.5407 98.6563 14.042C97.1376 13.5207 95.8456 12.988 94.7803 12.444C93.7376 11.9 92.8536 11.1634 92.1283 10.234C91.4256 9.28202 91.0743 8.11469 91.0743 6.73202C91.0743 5.37202 91.4256 4.18202 92.1283 3.16202C92.831 2.14202 93.8056 1.36002 95.0523 0.816021C96.299 0.272021 97.7383 2.13385e-05 99.3703 2.13385e-05C101.093 2.13385e-05 102.623 0.306021 103.96 0.91802C105.32 1.53002 106.374 2.39135 107.122 3.50202C107.893 4.59002 108.278 5.85935 108.278 7.31002V7.82002C108.278 7.93335 108.233 8.03535 108.142 8.12602C108.074 8.19402 107.984 8.22802 107.87 8.22802H103.96C103.847 8.22802 103.745 8.19402 103.654 8.12602C103.586 8.03535 103.552 7.93335 103.552 7.82002V7.54802C103.552 6.59602 103.156 5.79135 102.362 5.13402C101.592 4.45402 100.526 4.11402 99.1663 4.11402C98.101 4.11402 97.2623 4.34069 96.6503 4.79402C96.061 5.24735 95.7663 5.87069 95.7663 6.66402C95.7663 7.23069 95.9363 7.70669 96.2763 8.09202C96.639 8.47735 97.1603 8.82869 97.8403 9.14602C98.543 9.44069 99.6196 9.84869 101.07 10.37C102.68 10.9594 103.938 11.4807 104.844 11.934C105.774 12.3874 106.601 13.0674 107.326 13.974C108.074 14.858 108.448 16.014 108.448 17.442C108.448 19.5727 107.666 21.2614 106.102 22.508C104.538 23.732 102.419 24.344 99.7443 24.344ZM129.689 3.97802C129.689 4.09135 129.644 4.19335 129.553 4.28402C129.485 4.35202 129.394 4.38602 129.281 4.38602H118.129C118.016 4.38602 117.959 4.44269 117.959 4.55602V9.82602C117.959 9.93935 118.016 9.99602 118.129 9.99602H125.439C125.552 9.99602 125.643 10.0414 125.711 10.132C125.802 10.2 125.847 10.2907 125.847 10.404V13.702C125.847 13.8154 125.802 13.9174 125.711 14.008C125.643 14.076 125.552 14.11 125.439 14.11H118.129C118.016 14.11 117.959 14.1667 117.959 14.28V19.788C117.959 19.9014 118.016 19.958 118.129 19.958H129.281C129.394 19.958 129.485 20.0034 129.553 20.094C129.644 20.162 129.689 20.2527 129.689 20.366V23.664C129.689 23.7774 129.644 23.8794 129.553 23.97C129.485 24.038 129.394 24.072 129.281 24.072H113.573C113.46 24.072 113.358 24.038 113.267 23.97C113.199 23.8794 113.165 23.7774 113.165 23.664V0.680021C113.165 0.566687 113.199 0.476021 113.267 0.40802C113.358 0.317353 113.46 0.27202 113.573 0.27202H129.281C129.394 0.27202 129.485 0.317353 129.553 0.40802C129.644 0.476021 129.689 0.566687 129.689 0.680021V3.97802ZM150.707 24.344C148.894 24.344 147.307 24.0607 145.947 23.494C144.587 22.9047 143.533 22.0774 142.785 21.012C142.06 19.924 141.697 18.666 141.697 17.238V16.49C141.697 16.3767 141.731 16.286 141.799 16.218C141.89 16.1274 141.992 16.082 142.105 16.082H145.981C146.094 16.082 146.185 16.1274 146.253 16.218C146.344 16.286 146.389 16.3767 146.389 16.49V17C146.389 17.9067 146.808 18.6774 147.647 19.312C148.486 19.924 149.619 20.23 151.047 20.23C152.248 20.23 153.144 19.9807 153.733 19.482C154.322 18.9607 154.617 18.326 154.617 17.578C154.617 17.034 154.436 16.5807 154.073 16.218C153.71 15.8327 153.212 15.504 152.577 15.232C151.965 14.9374 150.979 14.5407 149.619 14.042C148.1 13.5207 146.808 12.988 145.743 12.444C144.7 11.9 143.816 11.1634 143.091 10.234C142.388 9.28202 142.037 8.11469 142.037 6.73202C142.037 5.37202 142.388 4.18202 143.091 3.16202C143.794 2.14202 144.768 1.36002 146.015 0.816021C147.262 0.272021 148.701 2.13385e-05 150.333 2.13385e-05C152.056 2.13385e-05 153.586 0.306021 154.923 0.91802C156.283 1.53002 157.337 2.39135 158.085 3.50202C158.856 4.59002 159.241 5.85935 159.241 7.31002V7.82002C159.241 7.93335 159.196 8.03535 159.105 8.12602C159.037 8.19402 158.946 8.22802 158.833 8.22802H154.923C154.81 8.22802 154.708 8.19402 154.617 8.12602C154.549 8.03535 154.515 7.93335 154.515 7.82002V7.54802C154.515 6.59602 154.118 5.79135 153.325 5.13402C152.554 4.45402 151.489 4.11402 150.129 4.11402C149.064 4.11402 148.225 4.34069 147.613 4.79402C147.024 5.24735 146.729 5.87069 146.729 6.66402C146.729 7.23069 146.899 7.70669 147.239 8.09202C147.602 8.47735 148.123 8.82869 148.803 9.14602C149.506 9.44069 150.582 9.84869 152.033 10.37C153.642 10.9594 154.9 11.4807 155.807 11.934C156.736 12.3874 157.564 13.0674 158.289 13.974C159.037 14.858 159.411 16.014 159.411 17.442C159.411 19.5727 158.629 21.2614 157.065 22.508C155.501 23.732 153.382 24.344 150.707 24.344ZM180.284 0.27202C180.398 0.27202 180.488 0.317353 180.556 0.40802C180.647 0.476021 180.692 0.566687 180.692 0.680021V4.01202C180.692 4.12535 180.647 4.22735 180.556 4.31802C180.488 4.38602 180.398 4.42002 180.284 4.42002H174.198C174.085 4.42002 174.028 4.47669 174.028 4.59002V23.664C174.028 23.7774 173.983 23.8794 173.892 23.97C173.824 24.038 173.734 24.072 173.62 24.072H169.642C169.529 24.072 169.427 24.038 169.336 23.97C169.268 23.8794 169.234 23.7774 169.234 23.664V4.59002C169.234 4.47669 169.178 4.42002 169.064 4.42002H163.148C163.035 4.42002 162.933 4.38602 162.842 4.31802C162.774 4.22735 162.74 4.12535 162.74 4.01202V0.680021C162.74 0.566687 162.774 0.476021 162.842 0.40802C162.933 0.317353 163.035 0.27202 163.148 0.27202H180.284ZM193.747 24.344C192.002 24.344 190.46 24.004 189.123 23.324C187.808 22.644 186.777 21.692 186.029 20.468C185.304 19.2214 184.941 17.7934 184.941 16.184V0.680021C184.941 0.566687 184.975 0.476021 185.043 0.40802C185.134 0.317353 185.236 0.27202 185.349 0.27202H189.327C189.44 0.27202 189.531 0.317353 189.599 0.40802C189.69 0.476021 189.735 0.566687 189.735 0.680021V16.218C189.735 17.4194 190.098 18.394 190.823 19.142C191.571 19.8674 192.546 20.23 193.747 20.23C194.948 20.23 195.912 19.8674 196.637 19.142C197.385 18.394 197.759 17.4194 197.759 16.218V0.680021C197.759 0.566687 197.793 0.476021 197.861 0.40802C197.952 0.317353 198.054 0.27202 198.167 0.27202H202.145C202.258 0.27202 202.349 0.317353 202.417 0.40802C202.508 0.476021 202.553 0.566687 202.553 0.680021V16.184C202.553 17.7934 202.179 19.2214 201.431 20.468C200.706 21.692 199.674 22.644 198.337 23.324C197.022 24.004 195.492 24.344 193.747 24.344ZM208.262 24.072C208.148 24.072 208.046 24.038 207.956 23.97C207.888 23.8794 207.854 23.7774 207.854 23.664V0.680021C207.854 0.566687 207.888 0.476021 207.956 0.40802C208.046 0.317353 208.148 0.27202 208.262 0.27202H216.762C218.462 0.27202 219.946 0.57802 221.216 1.19002C222.508 1.77935 223.505 2.61802 224.208 3.70602C224.91 4.79402 225.262 6.05202 225.262 7.48002V16.864C225.262 18.292 224.91 19.55 224.208 20.638C223.505 21.726 222.508 22.576 221.216 23.188C219.946 23.7774 218.462 24.072 216.762 24.072H208.262ZM212.648 19.788C212.648 19.9014 212.704 19.958 212.818 19.958H216.932C217.974 19.958 218.813 19.6067 219.448 18.904C220.105 18.2014 220.445 17.2607 220.468 16.082V8.26202C220.468 7.08335 220.139 6.14269 219.482 5.44002C218.847 4.73735 217.986 4.38602 216.898 4.38602H212.818C212.704 4.38602 212.648 4.44269 212.648 4.55602V19.788ZM230.639 24.072C230.526 24.072 230.424 24.038 230.333 23.97C230.265 23.8794 230.231 23.7774 230.231 23.664V0.680021C230.231 0.566687 230.265 0.476021 230.333 0.40802C230.424 0.317353 230.526 0.27202 230.639 0.27202H234.617C234.731 0.27202 234.821 0.317353 234.889 0.40802C234.98 0.476021 235.025 0.566687 235.025 0.680021V23.664C235.025 23.7774 234.98 23.8794 234.889 23.97C234.821 24.038 234.731 24.072 234.617 24.072H230.639ZM248.989 24.446C247.221 24.446 245.657 24.0834 244.297 23.358C242.96 22.6327 241.917 21.624 241.169 20.332C240.421 19.0174 240.047 17.51 240.047 15.81V8.53402C240.047 6.85669 240.421 5.37202 241.169 4.08002C241.917 2.78802 242.96 1.79069 244.297 1.08802C245.657 0.362687 247.221 2.13385e-05 248.989 2.13385e-05C250.78 2.13385e-05 252.344 0.362687 253.681 1.08802C255.041 1.79069 256.095 2.78802 256.843 4.08002C257.591 5.37202 257.965 6.85669 257.965 8.53402V15.81C257.965 17.51 257.591 19.0174 256.843 20.332C256.095 21.6467 255.041 22.6667 253.681 23.392C252.344 24.0947 250.78 24.446 248.989 24.446ZM248.989 20.332C250.236 20.332 251.244 19.9354 252.015 19.142C252.786 18.3487 253.171 17.2947 253.171 15.98V8.50002C253.171 7.18535 252.786 6.13135 252.015 5.33802C251.267 4.52202 250.258 4.11402 248.989 4.11402C247.742 4.11402 246.734 4.52202 245.963 5.33802C245.215 6.13135 244.841 7.18535 244.841 8.50002V15.98C244.841 17.2947 245.215 18.3487 245.963 19.142C246.734 19.9354 247.742 20.332 248.989 20.332Z" fill="#FDC700"/>
</g>
</g>
</svg>
